/* XPM */
static char * close_inactive_xpm[] = {
"24 26 139 2",
"  	c #FDEAD2",
". 	c #FDEBD2",
"+ 	c #FDEAD3",
"@ 	c #FDEBD3",
"# 	c #FCEAD2",
"$ 	c #FDE8CE",
"% 	c #FDE9CE",
"& 	c #FCE8CE",
"* 	c #FDE9CF",
"= 	c #FCE9CE",
"- 	c #FCE7CB",
"; 	c #FDE7CB",
"> 	c #FCE6CB",
", 	c #FDE7CA",
"' 	c #FCE7CA",
") 	c #FDE6CB",
"! 	c #FCE6CA",
"~ 	c #FCE5C8",
"{ 	c #FCE6C8",
"] 	c #FCE5C7",
"^ 	c #FCE6C7",
"/ 	c #FDE6C7",
"( 	c #FDE5C7",
"_ 	c #FCE4C4",
": 	c #FBE4C4",
"< 	c #FCE4C3",
"[ 	c #FCE3C4",
"} 	c #FBE4C3",
"| 	c #FCE3C3",
"1 	c #FCE2C0",
"2 	c #FBE2C1",
"3 	c #FCE2C1",
"4 	c #FBE2C0",
"5 	c #FBE3C1",
"6 	c #FCE3C0",
"7 	c #FCE0BD",
"8 	c #FBE0BD",
"9 	c #FCE1BD",
"0 	c #FBE1BD",
"a 	c #FCDFB9",
"b 	c #FBDFBA",
"c 	c #FBDFB9",
"d 	c #FCE0BA",
"e 	c #FBE0BA",
"f 	c #FBE0B9",
"g 	c #FCDFBA",
"h 	c #FBDDB6",
"i 	c #FBDEB7",
"j 	c #FCDEB7",
"k 	c #FBDEB6",
"l 	c #FBDDB7",
"m 	c #FCDDB7",
"n 	c #FBDCB3",
"o 	c #FBDDB3",
"p 	c #FBDCB2",
"q 	c #FADCB2",
"r 	c #7D6B53",
"s 	c #FADAB0",
"t 	c #FADAAF",
"u 	c #FADBAF",
"v 	c #FBDAB0",
"w 	c #FBDBB0",
"x 	c #FBDBAF",
"y 	c #FADBB0",
"z 	c #FAD9AC",
"A 	c #FAD8AB",
"B 	c #FBD9AC",
"C 	c #FBD9AB",
"D 	c #FAD9AB",
"E 	c #FBD8AB",
"F 	c #FAD7A7",
"G 	c #FAD7A8",
"H 	c #FBD7A8",
"I 	c #FAD5A4",
"J 	c #FAD6A4",
"K 	c #FAD6A5",
"L 	c #F9D5A5",
"M 	c #F9D6A4",
"N 	c #FAD5A5",
"O 	c #FAD4A1",
"P 	c #F9D4A1",
"Q 	c #FAD4A0",
"R 	c #F9D39E",
"S 	c #F9D29E",
"T 	c #FAD39E",
"U 	c #FAD39D",
"V 	c #F9D39D",
"W 	c #FAD29E",
"X 	c #F9D29D",
"Y 	c #F9D19A",
"Z 	c #FAD19A",
"` 	c #F9D19B",
" .	c #F9CF97",
"..	c #F9D097",
"+.	c #F9D096",
"@.	c #F9CF96",
"#.	c #F9CE93",
"$.	c #F8CE94",
"%.	c #F9CE94",
"&.	c #F9CD93",
"*.	c #F8CE93",
"=.	c #F8CD94",
"-.	c #F9CD94",
";.	c #F9CC90",
">.	c #F8CC90",
",.	c #F8CC8F",
"'.	c #F9CD90",
").	c #F8CD90",
"!.	c #F9CB8D",
"~.	c #F8CB8C",
"{.	c #F8CB8D",
"].	c #F8CA8D",
"^.	c #F9CA8D",
"/.	c #F8CA8C",
"(.	c #F9CB8C",
"_.	c #F8C988",
":.	c #F8C989",
"<.	c #F8C889",
"[.	c #F8C785",
"}.	c #F7C885",
"|.	c #F7C785",
"1.	c #F8C884",
"2.	c #F8C885",
"3.	c #F8C784",
"4.	c #F7C582",
"5.	c #F8C682",
"6.	c #F8C681",
"7.	c #F7C581",
"8.	c #F7C682",
"9.	c #F7C681",
"0.	c #F8C581",
"a.	c #F7C47F",
"b.	c #F7C47E",
"c.	c #F8C47F",
"d.	c #F7C57F",
"e.	c #F8C57E",
"f.	c #F7C57E",
"g.	c #F8C47E",
"h.	c #F0CE9F",
"      .       +   +     + @ +   + .   + .   # @ ",
"$ % % & % % & & * $ % & $ % * $ & $ % $ & = $ % ",
"- ; - > - > , - - ' ; ) ' - ; ' - ) - > > ; ; ! ",
"~ { ] ] { ] ^ ~ ~ ] / ] ~ ( ] ^ ^ ^ ^ ~ ~ ] ^ ] ",
"_ _ _ : _ _ : _ _ _ < [ _ _ _ _ _ } | _ _ _ [ _ ",
"1 1 1 2 1 1 3 1 4 2 3 2 3 1 5 4 1 3 1 3 1 2 6 4 ",
"7 8 8 7 9 9 0 0 9 0 8 7 9 8 0 0 7 8 8 0 0 9 9 9 ",
"a b c b d b b b b e c f c g g a c g c e b e a g ",
"h i j k k k k h k l k k i l l l i h m k h h k k ",
"n o n n n p q n r r n n n n r r p p n n n n n n ",
"s t u v w x t x r r r u w r r r u u y t v w y t ",
"z A A B C A A C C r r r r r r D C B D B E A D C ",
"F F G G G G F G G F r r r r G G G H G G G G G G ",
"I J K J K J K K J J r r r r L J M N N J K J K J ",
"O O P O P O O O O r r r r r r P Q P O O Q O O P ",
"R S R T U S V V r r r R S r r r R T S V W X R S ",
"Y Y Y Y Y Z Y ` r r Y ` ` ` r r Y Y Y Y Y ` Y Z ",
" .........+.+. . . . . .+...+. ....... ...@...@.",
"#.#.$.%.%.%.$.#.$.%.#.%.%.&.%.$.%.$.*.=.$.-.-.#.",
";.;.>.,.>.;.;.'.).'.).>.;.'.'.;.).'.).;.;.>.>.>.",
"!.~.{.!.~.~.~.{.].!.{.!.{.{.~.!.^.!./.{.^.(.(.^.",
"_._._._._._._._._.:._._._.:._._.<._._.:._._._._.",
"[.}.[.|.1.2.2.[.[.2.2.}.[.[.[.[.[.}.|.[.}.}.|.3.",
"4.5.6.7.8.5.6.9.6.6.8.4.5.6.5.5.6.5.5.4.6.5.0.8.",
"a.b.c.d.b.e.b.b.b.f.g.b.g.g.g.b.g.b.f.g.f.b.b.g.",
"h.h.h.h.h.h.h.h.h.h.h.h.h.h.h.h.h.h.h.h.h.h.h.h."};
