/* XPM */
static char * close_pressed_xpm[] = {
"24 25 135 2",
"  	c #C4AB8A",
". 	c #C3AB8A",
"+ 	c #C4AC8B",
"@ 	c #C3AC8B",
"# 	c #C3AC8A",
"$ 	c #C4AB8B",
"% 	c #C4AC8A",
"& 	c #C2AA88",
"* 	c #C2AA89",
"= 	c #C2A989",
"- 	c #C1AA88",
"; 	c #C2A988",
"> 	c #C1A989",
", 	c #C1A987",
"' 	c #C0A887",
") 	c #C1A887",
"! 	c #C0A986",
"~ 	c #C1A886",
"{ 	c #C0A987",
"] 	c #BFA785",
"^ 	c #C0A686",
"/ 	c #C0A786",
"( 	c #BFA685",
"_ 	c #C0A685",
": 	c #C0A785",
"< 	c #BFA786",
"[ 	c #BFA686",
"} 	c #BEA584",
"| 	c #BEA583",
"1 	c #BDA584",
"2 	c #BEA684",
"3 	c #BCA482",
"4 	c #BDA482",
"5 	c #BCA383",
"6 	c #BCA382",
"7 	c #BCA281",
"8 	c #BBA281",
"9 	c #BBA381",
"0 	c #BBA280",
"a 	c #BCA381",
"b 	c #BBA380",
"c 	c #BAA07F",
"d 	c #BAA17E",
"e 	c #BAA17F",
"f 	c #B9A17F",
"g 	c #B9A07F",
"h 	c #B99F7D",
"i 	c #B89F7D",
"j 	c #B8A07D",
"k 	c #B89F7E",
"l 	c #B9A07E",
"m 	c #B8A07E",
"n 	c #B99F7E",
"o 	c #B79D7C",
"p 	c #B79E7C",
"q 	c #B79D7B",
"r 	c #B79E7B",
"s 	c #7D6B53",
"t 	c #B69C7A",
"u 	c #B59D7A",
"v 	c #B59C7A",
"w 	c #B49B78",
"x 	c #B49B79",
"y 	c #B39977",
"z 	c #B39A77",
"A 	c #B29A77",
"B 	c #B39A76",
"C 	c #B39976",
"D 	c #B29A76",
"E 	c #B29876",
"F 	c #B19875",
"G 	c #B29875",
"H 	c #B29976",
"I 	c #B29975",
"J 	c #B19976",
"K 	c #B19674",
"L 	c #B09774",
"M 	c #B19774",
"N 	c #B09773",
"O 	c #B09674",
"P 	c #AF9672",
"Q 	c #AF9572",
"R 	c #B09572",
"S 	c #AF9573",
"T 	c #AE9470",
"U 	c #AE9471",
"V 	c #AD9471",
"W 	c #AD9470",
"X 	c #AD9371",
"Y 	c #AE9370",
"Z 	c #AC926F",
"` 	c #AC936F",
" .	c #AD926F",
"..	c #AC9270",
"+.	c #AD936F",
"@.	c #AB916E",
"#.	c #AB906D",
"$.	c #AB916D",
"%.	c #AB906E",
"&.	c #AA906E",
"*.	c #AA8F6C",
"=.	c #A98F6C",
"-.	c #AA906C",
";.	c #A98E6B",
">.	c #A98D6A",
",.	c #A88E6A",
"'.	c #A88D6A",
").	c #A98D6B",
"!.	c #A88E6B",
"~.	c #A88D6B",
"{.	c #A98E6A",
"].	c #A78D69",
"^.	c #A78C69",
"/.	c #A78C68",
"(.	c #A78D68",
"_.	c #A68C68",
":.	c #A68C69",
"<.	c #A68B68",
"[.	c #A68B67",
"}.	c #A58B68",
"|.	c #A58B67",
"1.	c #A58A67",
"2.	c #A48966",
"3.	c #A48A65",
"4.	c #A48A66",
"5.	c #A48965",
"6.	c #A58A65",
"7.	c #A58A66",
"8.	c #A28864",
"9.	c #A38864",
"0.	c #A38763",
"a.	c #A38764",
"b.	c #A28863",
"c.	c #A38863",
"d.	c #A28764",
"  . . . . + . . @ # @ .   .   . # $ . $ #   . % ",
"& * & * = * * - ; = & * & * & * * = * = > & > * ",
", ' ' ' ' ' , ) ) ! ' ~ ' ) ) , ' ' , ) { ' { , ",
"] ] ^ ] ] / ( ] / ] _ : < ] ( ( ( [ ( ] ] < ( ] ",
"} | } | | } | } | | } 1 } } } 2 } | } } | 1 } | ",
"3 4 3 4 4 3 3 3 5 4 4 4 6 3 3 3 3 4 6 4 3 6 4 4 ",
"7 8 8 9 0 a 0 8 0 8 8 8 9 0 8 8 8 b 0 8 8 8 9 8 ",
"c d e c f e f g e e c e e e f c e c f f f e f e ",
"h i j h k j l h j m n i j h i m i j m j m i k i ",
"o o p q r r r o s s r p q r s s r p q r p r q p ",
"t u t u v t t v s s s u t s s s t t t v v v t t ",
"w w w x w w w w x s s s s s s w w x x w w w w w ",
"y z y z y z y y A B s s s s y z y y y C B z D y ",
"E F G E G E G G H E s s s s I E J F G E E F E G ",
"K L L L M L L M M s s s s s s L N L K L L O L L ",
"P Q Q Q Q Q R P s s s P Q s s s S P S Q Q Q P Q ",
"T U U V W X X Y s s Y U U T s s V U U U U U X W ",
"Z Z ` ` ` Z  .Z ` ..Z Z `  . . .Z +.Z  .` Z  ...",
"@.@.#.@.#.#.$.@.@.@.@.$.%.#.%.@.@.@.#.%.$.$.&.%.",
"*.=.*.=.*.-.*.*.-.=.-.=.=.*.*.*.=.=.*.*.*.*.*.=.",
";.>.,.'.,.'.'.'.'.,.).,.>.!.,.'.,.,.'.~.,.'.!.{.",
"].^./.].]./.(._.(.(.^._././.:.].(./._.].^./.^.^.",
"<.[.}.|.[.|.|.|.[.|.[.|.[.|.[.[.[.|.|.[.1.[.[.1.",
"2.3.3.4.5.2.2.5.5.4.2.5.3.4.6.7.2.2.2.2.4.4.5.5.",
"8.8.9.0.8.a.9.a.b.c.8.9.b.9.a.8.d.8.d.0.b.9.c.9."};
