/* XPM */
static char * close_active_xpm[] = {
"24 26 134 2",
"  	c #E4CEB0",
". 	c #E5CEB0",
"+ 	c #E5CFB0",
"@ 	c #E5CEAF",
"# 	c #E5CFAF",
"$ 	c #E4CCAD",
"% 	c #E4CDAD",
"& 	c #E4CDAE",
"* 	c #E4CCAE",
"= 	c #E3CCAD",
"- 	c #E3CDAE",
"; 	c #E3CDAD",
"> 	c #E3CCAB",
", 	c #E3CBAB",
"' 	c #E3CCAA",
") 	c #E3CBAA",
"! 	c #E4CBAA",
"~ 	c #E3CAA9",
"{ 	c #E2CAA8",
"] 	c #E3CAA8",
"^ 	c #E3C9A9",
"/ 	c #E3C9A8",
"( 	c #E2C9A9",
"_ 	c #E2CAA9",
": 	c #E2C9A8",
"< 	c #E2C9A6",
"[ 	c #E2C8A6",
"} 	c #E1C8A5",
"| 	c #E1C9A5",
"1 	c #E2C8A5",
"2 	c #E1C8A6",
"3 	c #E1C9A6",
"4 	c #E0C7A4",
"5 	c #E1C6A4",
"6 	c #E1C7A3",
"7 	c #E0C7A3",
"8 	c #E1C6A3",
"9 	c #E1C7A4",
"0 	c #E0C6A4",
"a 	c #E0C6A3",
"b 	c #E0C6A1",
"c 	c #E0C5A1",
"d 	c #E0C6A0",
"e 	c #DFC5A1",
"f 	c #DFC5A0",
"g 	c #DFC49E",
"h 	c #DFC49F",
"i 	c #E0C39E",
"j 	c #DFC39E",
"k 	c #DFC39F",
"l 	c #E0C49E",
"m 	c #DFC39C",
"n 	c #DFC29C",
"o 	c #DEC29C",
"p 	c #DFC29B",
"q 	c #DDC09A",
"r 	c #DEC099",
"s 	c #DEC199",
"t 	c #DDC199",
"u 	c #DDC19A",
"v 	c #1F1B15",
"w 	c #DEC19A",
"x 	c #DEC09A",
"y 	c #DCBF97",
"z 	c #DDBF97",
"A 	c #DDC097",
"B 	c #DDBF96",
"C 	c #DCBF96",
"D 	c #DCBE95",
"E 	c #DCBD95",
"F 	c #DDBD94",
"G 	c #DCBD94",
"H 	c #DCBE94",
"I 	c #DCBC92",
"J 	c #DBBC92",
"K 	c #DBBC91",
"L 	c #DBBB8F",
"M 	c #DABB8F",
"N 	c #DABA8F",
"O 	c #DABA90",
"P 	c #DBBA8F",
"Q 	c #DBBB90",
"R 	c #DABB90",
"S 	c #DAB98C",
"T 	c #DAB98D",
"U 	c #D9B98D",
"V 	c #D9B98C",
"W 	c #D9B78B",
"X 	c #D9B88A",
"Y 	c #D9B88B",
"Z 	c #D9B78A",
"` 	c #D9B688",
" .	c #D8B688",
"..	c #D8B586",
"+.	c #D7B587",
"@.	c #D7B586",
"#.	c #D8B587",
"$.	c #D8B486",
"%.	c #D7B486",
"&.	c #D6B384",
"*.	c #D6B483",
"=.	c #D7B484",
"-.	c #D7B384",
";.	c #D7B383",
">.	c #D7B483",
",.	c #D6B282",
"'.	c #D6B281",
").	c #D6B181",
"!.	c #D5B07F",
"~.	c #D6B17F",
"{.	c #D5B07E",
"].	c #D5B17F",
"^.	c #D6B07E",
"/.	c #D5AF7C",
"(.	c #D5AE7D",
"_.	c #D4AF7C",
":.	c #D5AE7C",
"<.	c #D4AE7C",
"[.	c #D3AD7A",
"}.	c #D4AD7A",
"|.	c #D4AE7A",
"1.	c #D4AD79",
"2.	c #D3AE7A",
"3.	c #D4AE79",
"4.	c #D3AC77",
"5.	c #D3AB77",
"6.	c #D3AC78",
"7.	c #D2AA75",
"8.	c #D2AB74",
"9.	c #D3AA75",
"0.	c #D2AA74",
"a.	c #D2AB75",
"b.	c #D3AB75",
"c.	c #978164",
"    . . + + . + @ .   # .   . + @ . +   @ . .   ",
"$ $ % $ % & % * % = $ $ & % - ; $ $ % $ % % % & ",
"> , , ' , ) ) ' , , , ) ) ) ' , ' , > > , , > ! ",
"~ { ] ^ / { { ] { { { ( ] _ { ( / ] { { { : ] { ",
"< [ } < [ < < | [ 1 2 2 [ } 2 } 1 < 2 [ 2 3 [ [ ",
"4 5 6 7 6 8 9 6 7 0 4 6 a 4 6 0 8 6 0 6 9 9 7 6 ",
"b c c d c c c c b c c c b c e c c f c c c c c c ",
"g g g h i h j k h h l k k l h l j g k g g g k h ",
"m n o n n o o n o n o o n o o o m p o o n p n n ",
"q r r s s s t u v v t w x w v v w x w w u t x s ",
"y z z z z z A z v v v z y v v v B y y y y C z z ",
"D E F E D G D H D v v v v v v E H D G G G D H D ",
"I I I J J I J J K J v v v v J J J J I J J J I J ",
"L M N O P P M Q L P v v v v R Q Q P L P O M L R ",
"S T T U T T U T T v v v v v v T U U T U T V T T ",
"W X Y Y Z W Z X v v v Z Z v v v Z W Z X Y Z Z Y ",
"` ` `  . . .` ` v v  . . . .v v  . . . . . . . .",
"..+.@.@.@.@.#...$.#.%.@.#.@.$.....+.@.@...@...$.",
"&.*.*.&.=.-.=.&.;.;.-.-.>.>.-.;.-.>.-.=.-.-.;.=.",
",.'.,.'.,.).'.).'.).'.'.'.'.'.'.'.'.'.'.'.'.).'.",
"!.!.~.~.!.{.{.].{.].!.].{.{.!.{.^.{.!.{.{.].!.{.",
"/./.(._.:./._./._._._._.(._._./.<././._.:._.<./.",
"[.}.}.|.|.|.}.1.|.}.2.3.2.|.1.2.3.}.[.|.}.}.|.|.",
"4.4.4.5.4.4.5.4.4.4.4.5.6.4.4.4.4.5.4.4.5.5.4.4.",
"7.8.7.9.8.0.7.7.7.7.a.7.0.7.9.7.7.7.7.7.7.a.b.7.",
"c.c.c.c.c.c.c.c.c.c.c.c.c.c.c.c.c.c.c.c.c.c.c.c."};
