/* XPM */
static char * close_prelight_xpm[] = {
"24 26 146 2",
"  	c #E5CFB0",
". 	c #E4CEB0",
"+ 	c #E4CFB0",
"@ 	c #E5CEB0",
"# 	c #E5CEAF",
"$ 	c #E4CEAF",
"% 	c #E4CDAD",
"& 	c #E4CDAE",
"* 	c #E3CDAE",
"= 	c #E4CCAE",
"- 	c #E4CCAD",
"; 	c #E3CDAD",
"> 	c #E3CBAB",
", 	c #E4CBAA",
"' 	c #E4CCAA",
") 	c #E3CCAA",
"! 	c #E3CBAA",
"~ 	c #E4CBAB",
"{ 	c #E3CCAB",
"] 	c #E2CAA8",
"^ 	c #E2C9A8",
"/ 	c #E3CAA8",
"( 	c #E3C9A8",
"_ 	c #E2CAA9",
": 	c #E2C8A6",
"< 	c #E2C8A5",
"[ 	c #E2C9A6",
"} 	c #E1C8A6",
"| 	c #E1C8A5",
"1 	c #E1C9A6",
"2 	c #E1C7A3",
"3 	c #E0C7A3",
"4 	c #E1C6A3",
"5 	c #E1C7A4",
"6 	c #E1C6A4",
"7 	c #E0C6A4",
"8 	c #E0C7A4",
"9 	c #E0C5A1",
"0 	c #E0C5A0",
"a 	c #DFC5A0",
"b 	c #E0C6A1",
"c 	c #DFC5A1",
"d 	c #E0C39F",
"e 	c #DFC39E",
"f 	c #E0C49F",
"g 	c #DFC49E",
"h 	c #DFC39F",
"i 	c #DFC49F",
"j 	c #E0C49E",
"k 	c #E0C39E",
"l 	c #DFC39C",
"m 	c #DEC29C",
"n 	c #DFC29C",
"o 	c #DFC29B",
"p 	c #DFC39B",
"q 	c #DEC39C",
"r 	c #DEC29B",
"s 	c #DEC199",
"t 	c #DDC099",
"u 	c #DEC19A",
"v 	c #DEC09A",
"w 	c #DDC09A",
"x 	c #7D6B53",
"y 	c #DEC099",
"z 	c #DDC199",
"A 	c #DDBF96",
"B 	c #DDBF97",
"C 	c #DDC096",
"D 	c #DCBF97",
"E 	c #DCBE94",
"F 	c #DCBE95",
"G 	c #DCBD94",
"H 	c #DCBD95",
"I 	c #DBBC92",
"J 	c #DCBC92",
"K 	c #DBBD92",
"L 	c #DBBD91",
"M 	c #DBBB90",
"N 	c #DABB90",
"O 	c #DBBA90",
"P 	c #DBBB91",
"Q 	c #DABA90",
"R 	c #DABA8D",
"S 	c #DAB98E",
"T 	c #D9BA8D",
"U 	c #DAB98D",
"V 	c #DABA8E",
"W 	c #D9B88B",
"X 	c #DAB88B",
"Y 	c #D9B78C",
"Z 	c #D9B78B",
"` 	c #D8B689",
" .	c #D8B788",
"..	c #D9B789",
"+.	c #D9B689",
"@.	c #D8B789",
"#.	c #D8B688",
"$.	c #D9B688",
"%.	c #D8B587",
"&.	c #D7B586",
"*.	c #D8B586",
"=.	c #D7B486",
"-.	c #D8B486",
";.	c #D7B383",
">.	c #D7B384",
",.	c #D7B484",
"'.	c #D6B383",
").	c #D6B483",
"!.	c #D7B483",
"~.	c #D6B181",
"{.	c #D6B281",
"].	c #D6B282",
"^.	c #D6B182",
"/.	c #D5B07F",
"(.	c #D5B17F",
"_.	c #D6B07F",
":.	c #D6B07E",
"<.	c #D5B07E",
"[.	c #D6B17F",
"}.	c #D5B17E",
"|.	c #D5AE7D",
"1.	c #D5AF7C",
"2.	c #D4AF7C",
"3.	c #D5AF7D",
"4.	c #D4AE7C",
"5.	c #D4AF7D",
"6.	c #D5AE7C",
"7.	c #D3AE7A",
"8.	c #D4AE79",
"9.	c #D4AE7A",
"0.	c #D4AD7A",
"a.	c #D3AD7A",
"b.	c #D4AD79",
"c.	c #D3AB77",
"d.	c #D3AC77",
"e.	c #D3AB78",
"f.	c #D2AC77",
"g.	c #D3AC78",
"h.	c #D2AB75",
"i.	c #D2AA75",
"j.	c #D2AB74",
"k.	c #D3AA75",
"l.	c #D2AA74",
"m.	c #D3AB75",
"n.	c #D3AA74",
"o.	c #978164",
"  . . + . @ # @ # . $ @ . . @ . . @   .   $ @ @ ",
"% & * % = - % - = ; % % % % % % = - - - ; % % - ",
"> , ' > ) > > ! > > ~ > > ! { > > > > > > > ! ~ ",
"] ] ^ / ] ] ] ] ^ ] / ( ] ( ] ] _ ] ^ _ / ] ] / ",
": < [ } : : | : 1 : 1 } : : } : < : } : : : } < ",
"2 3 4 5 5 6 2 7 5 6 5 2 8 2 6 2 6 5 5 5 5 3 7 2 ",
"9 9 9 9 9 9 9 9 9 9 9 9 9 0 a b 9 9 c 0 9 9 0 9 ",
"d e f g g h e h g h g g e i j f g k h e e g g j ",
"l m n o n n m p m n m m m m q m n m m n m n q r ",
"s t u v w s s v x x w t w t x x t y t v z u t z ",
"A B A C D B B B x x x B B x x x B D B B D B D B ",
"E E F G F E E H G x x x x x x E F H G E E G F E ",
"I I I I I J J J K I x x x x I I L J I I I I I I ",
"M N M N M N M N O M x x x x N M P M M M M Q M N ",
"R S S S T S U V R x x x x x x V V V S S U R U U ",
"W X W W X W W Y x x x X Z x x x W W Z W W Z W W ",
"` `  ...+.@.` #.x x #.$.#...x x @.` #. .` ` ` +.",
"%.&.*.*.*.*.&.&.*.*.%.&.*.=.*.&.*.-.*.-.*.*.*.%.",
";.>.>.,.;.>.'.>.'.).>.>.!.'.>.;.,.;.,.;.;.,.;.;.",
"~.~.{.{.{.{.{.{.{.{.].~.{.{.{.{.{.{.{.^.~.{.~.{.",
"/./././.(./._./.:.<./././.[.:.}.<.(.<./.<.(.:.(.",
"|.1.2.2.1.1.2.1.3.1.2.4.3.4.3.1.2.5.5.2.6.6.2.5.",
"7.8.9.0.8.0.a.7.9.8.9.8.0.a.b.b.b.0.0.8.b.9.0.9.",
"c.d.d.d.d.d.d.d.d.e.d.d.d.d.d.c.f.c.d.g.e.g.d.d.",
"h.i.j.k.i.l.m.l.i.h.i.n.l.h.i.i.h.i.l.j.l.j.i.l.",
"o.o.o.o.o.o.o.o.o.o.o.o.o.o.o.o.o.o.o.o.o.o.o.o."};
