/* XPM */
static char * hide_active_xpm[] = {
"24 26 137 2",
"  	c #E5CFB0",
". 	c #E5CEB0",
"+ 	c #E4CEB0",
"@ 	c #E4CFB0",
"# 	c #E5CEAF",
"$ 	c #E4CFAF",
"% 	c #E4CDAD",
"& 	c #E4CCAD",
"* 	c #E3CCAD",
"= 	c #E4CDAE",
"- 	c #E4CCAE",
"; 	c #E3CDAD",
"> 	c #E3CDAE",
", 	c #E4CCAB",
"' 	c #E3CBAB",
") 	c #E3CCAB",
"! 	c #E3CBAA",
"~ 	c #E3CCAA",
"{ 	c #E3CAA8",
"] 	c #E2C9A8",
"^ 	c #E2C9A9",
"/ 	c #E3CAA9",
"( 	c #E2CAA8",
"_ 	c #E2CAA9",
": 	c #E3C9A8",
"< 	c #E2C9A6",
"[ 	c #E1C8A6",
"} 	c #E2C8A6",
"| 	c #E1C9A5",
"1 	c #E2C8A5",
"2 	c #E1C8A5",
"3 	c #E1C7A3",
"4 	c #E1C6A3",
"5 	c #E0C6A3",
"6 	c #E0C7A3",
"7 	c #E1C7A4",
"8 	c #E0C7A4",
"9 	c #E1C6A4",
"0 	c #E0C6A4",
"a 	c #E0C5A1",
"b 	c #E0C6A0",
"c 	c #E0C6A1",
"d 	c #E0C5A0",
"e 	c #DFC39E",
"f 	c #DFC39F",
"g 	c #E0C39F",
"h 	c #DFC49F",
"i 	c #E0C49E",
"j 	c #DFC49E",
"k 	c #DEC29C",
"l 	c #DFC29C",
"m 	c #DEC39C",
"n 	c #DFC39C",
"o 	c #DEC199",
"p 	c #DEC09A",
"q 	c #DEC099",
"r 	c #DDC199",
"s 	c #DEC19A",
"t 	c #DDC099",
"u 	c #DDBF96",
"v 	c #DDBF97",
"w 	c #DCBF97",
"x 	c #DDC097",
"y 	c #DCBE95",
"z 	c #DCBE94",
"A 	c #DCBD94",
"B 	c #DCBD95",
"C 	c #DDBD94",
"D 	c #DDBE95",
"E 	c #DBBC92",
"F 	c #DCBC92",
"G 	c #DBBC91",
"H 	c #1F1B15",
"I 	c #DCBC91",
"J 	c #DBBB90",
"K 	c #DBBB8F",
"L 	c #DABA90",
"M 	c #DBBA90",
"N 	c #DABB90",
"O 	c #DBBA8F",
"P 	c #DABA8F",
"Q 	c #DAB98D",
"R 	c #D9B98D",
"S 	c #DAB98C",
"T 	c #D9B78A",
"U 	c #D9B88B",
"V 	c #D9B78B",
"W 	c #D9B88A",
"X 	c #D8B88A",
"Y 	c #D8B688",
"Z 	c #D9B688",
"` 	c #D7B486",
" .	c #D7B485",
"..	c #D7B585",
"+.	c #D7B586",
"@.	c #D8B485",
"#.	c #D8B586",
"$.	c #D8B486",
"%.	c #D7B283",
"&.	c #D6B383",
"*.	c #D7B383",
"=.	c #D6B181",
"-.	c #D6B280",
";.	c #D6B281",
">.	c #D6B180",
",.	c #D5B281",
"'.	c #D5B280",
").	c #D5B07E",
"!.	c #D6B07E",
"~.	c #D5AF7E",
"{.	c #D6B07F",
"].	c #D5B07F",
"^.	c #D4AE7C",
"/.	c #D4AF7B",
"(.	c #D4AE7B",
"_.	c #D5AE7C",
":.	c #D5AF7B",
"<.	c #D5AE7B",
"[.	c #D5AF7C",
"}.	c #D4AF7C",
"|.	c #D4AD79",
"1.	c #D3AD79",
"2.	c #D4AD7A",
"3.	c #D4AC79",
"4.	c #D3AD7A",
"5.	c #D2AB77",
"6.	c #D3AB77",
"7.	c #D2AC77",
"8.	c #D3AB76",
"9.	c #D3AC77",
"0.	c #D2AC76",
"a.	c #D3AC76",
"b.	c #D2AB76",
"c.	c #D2AA74",
"d.	c #D2AA75",
"e.	c #D2A974",
"f.	c #978164",
"  . + . . .   . @ + +   @ # . $ +   + # .   +   ",
"% & * % = - % ; > ; = % * = - * - & % & % % = % ",
", ' ) ' ! ! ' ' ~ ' ' ' ' ) , ! ' ' ) ' ' ' ' ' ",
"{ { ] ^ / ( { _ ( ] ^ ( { ( ( ] ( / ( ^ _ _ : ( ",
"< [ } | 1 [ 1 [ 1 < [ } } } 2 [ } < [ } } } } | ",
"3 4 5 3 6 5 3 7 3 6 8 3 7 3 6 3 3 4 9 9 4 7 7 0 ",
"a b a c a a d c d a c d a a a d a a a c a a a a ",
"e e f g e e h f i e j i j e j e i j e j j e e j ",
"k k k l k m k k k k l k n k l k k k l k m k l k ",
"o p q p q r o r s q s p t s r q s r o o o r s r ",
"u v v u v w v v v v v v v x v v v v v v v v w v ",
"y z y z A B y A A z A y y C z A B A A D z z z y ",
"E E F E E E G E H H H H H H H H E E E E G E I E ",
"J K J L K M M M H H H H H H H H N O O P O K J L ",
"Q R Q R Q Q Q Q Q Q Q Q Q R Q R S Q Q R Q R Q Q ",
"T U U V W U V V V T W X U W U T T T U T V U X W ",
"Y Y Y Y Y Z Y Z Y Z Y Z Y Y Y Z Y Y Z Y Y Y Y Y ",
"`  .` ..+.@...+.` @.@...#.+.$.@.#.@...+.$. .$.@.",
"%.&.&.*.&.*.*.*.*.*.*.*.*.*.*.*.*.*.*.&.&.*.*.*.",
"=.-.;.=.;.>.-.>.-.>.;.>.;.,.;.=.'.=.;.-.=.=.=.;.",
").).!.~.).{.).).).).).!.].).).).).).!.).).).).).",
"^./.^.(._._.^.^.:.<.<.^./.^.[./.(././.^.}.}._.}.",
"|.|.1.|.1.2.1.1.3.1.|.|.1.|.|.4.1.1.|.1.3.|.|.1.",
"5.6.7.8.9.8.0.a.8.a.9.6.6.6.7.b.a.a.6.8.8.9.b.b.",
"c.c.d.c.c.c.c.c.d.e.c.c.c.c.e.c.c.c.c.c.c.e.c.c.",
"f.f.f.f.f.f.f.f.f.f.f.f.f.f.f.f.f.f.f.f.f.f.f.f."};
