/* XPM */
static char * hide_pressed_xpm[] = {
"24 25 139 2",
"  	c #C3AB8A",
". 	c #C4AC8A",
"+ 	c #C4AB8A",
"@ 	c #C3AB8B",
"# 	c #C3AC8A",
"$ 	c #C4AB8B",
"% 	c #C2AA88",
"& 	c #C1A989",
"* 	c #C2AA89",
"= 	c #C2A988",
"- 	c #C1AA89",
"; 	c #C2A989",
"> 	c #C1A887",
", 	c #C1A987",
"' 	c #C0A887",
") 	c #C0A987",
"! 	c #BFA786",
"~ 	c #C0A685",
"{ 	c #BFA685",
"] 	c #BFA686",
"^ 	c #BFA785",
"/ 	c #C0A785",
"( 	c #C0A686",
"_ 	c #BEA684",
": 	c #BDA584",
"< 	c #BDA684",
"[ 	c #BEA584",
"} 	c #BEA583",
"| 	c #BDA583",
"1 	c #BCA482",
"2 	c #BDA382",
"3 	c #BDA482",
"4 	c #BCA382",
"5 	c #BDA383",
"6 	c #BCA483",
"7 	c #BBA280",
"8 	c #BBA381",
"9 	c #BBA380",
"0 	c #BBA281",
"a 	c #BAA17E",
"b 	c #BAA17F",
"c 	c #B9A17F",
"d 	c #BAA07F",
"e 	c #B89F7D",
"f 	c #B8A07D",
"g 	c #B8A07E",
"h 	c #B99F7D",
"i 	c #B9A07D",
"j 	c #B89F7E",
"k 	c #B99F7E",
"l 	c #B79D7B",
"m 	c #B79D7C",
"n 	c #B79E7C",
"o 	c #B79E7B",
"p 	c #B69E7C",
"q 	c #B69E7B",
"r 	c #B69C7A",
"s 	c #B69D7A",
"t 	c #B59C7A",
"u 	c #B59D7A",
"v 	c #B49B79",
"w 	c #B49A78",
"x 	c #B49B78",
"y 	c #B59B78",
"z 	c #B59B79",
"A 	c #B39976",
"B 	c #B39977",
"C 	c #B39A76",
"D 	c #B29977",
"E 	c #7D6B53",
"F 	c #B29A77",
"G 	c #B39A77",
"H 	c #B19875",
"I 	c #B29875",
"J 	c #B29876",
"K 	c #B19876",
"L 	c #B29775",
"M 	c #B19775",
"N 	c #B09773",
"O 	c #B09674",
"P 	c #B09774",
"Q 	c #B09673",
"R 	c #AF9572",
"S 	c #AE9572",
"T 	c #AE9472",
"U 	c #AF9472",
"V 	c #AD9370",
"W 	c #AE9371",
"X 	c #AD9470",
"Y 	c #AD9371",
"Z 	c #AD9471",
"` 	c #AE9471",
" .	c #AE9470",
"..	c #AE9370",
"+.	c #AC926E",
"@.	c #AC926F",
"#.	c #AC916F",
"$.	c #AA906D",
"%.	c #AB906D",
"&.	c #AB916D",
"*.	c #AA916D",
"=.	c #AB916E",
"-.	c #AA8F6B",
";.	c #A98F6B",
">.	c #A98F6C",
",.	c #AA8E6B",
"'.	c #A98E6C",
").	c #AA8F6C",
"!.	c #A88D6A",
"~.	c #A78D6A",
"{.	c #A88E6A",
"].	c #A88D69",
"^.	c #A78D69",
"/.	c #A78E6A",
"(.	c #A78E69",
"_.	c #A78B69",
":.	c #A68C68",
"<.	c #A78C68",
"[.	c #A68C69",
"}.	c #A68B68",
"|.	c #A78C69",
"1.	c #A68B69",
"2.	c #A58B67",
"3.	c #A58A66",
"4.	c #A68B66",
"5.	c #A58B66",
"6.	c #A58A67",
"7.	c #A48965",
"8.	c #A38965",
"9.	c #A48865",
"0.	c #A38865",
"a.	c #A38764",
"b.	c #A38864",
"c.	c #A28863",
"d.	c #A28763",
"e.	c #A28864",
"f.	c #A28764",
"g.	c #A38763",
"h.	c #A38863",
"  . +   @     # @   # # @   + .     + $ # #   # ",
"% & % * % * * % = - % * % = % * - * % = % ; % = ",
"> , > ' ) ' ' > > , > ' ' > ) ) > ' , ) > > > ) ",
"! ~ { ] ^ { ^ ^ ] ^ ^ / ^ ( / ! ! / { ! ^ ^ / ! ",
"_ : < [ [ } [ _ [ _ } [ | _ } [ [ } [ [ } } } [ ",
"1 2 3 4 1 1 2 1 2 1 1 3 2 3 5 1 1 2 3 6 4 1 3 4 ",
"7 8 9 7 0 8 8 8 7 8 7 7 0 7 0 9 0 8 0 7 8 7 0 0 ",
"a b c b c b b d c b b b a b c b c b b d b a b d ",
"e f g e f h e i f j h j h e k e h e h f h h h h ",
"l m n l o n m n n n n n o l l o n m n p m o n q ",
"r s r r r t r r r t u r r u s t t t t t t r t u ",
"v w v x x x v x y v x y x x x x v w v w z x v x ",
"A A A B B C C D E E E E E E E E F G B B A F B B ",
"H I J H I K L H E E E E E E E E I H I K J M H H ",
"N O O N O O P P P O N P N Q O O N N P Q O Q Q P ",
"R R R R R R R S R T R R S R R S U S R S R T R S ",
"V W X V X Y X Z Z ` Y  .X ..V W V X V X Y Y X V ",
"+.@.#.@.@.@.@.@.@.#.+.+.@.@.#.@.@.+.@.@.@.@.@.+.",
"$.$.$.%.&.%.%.%.$.*.*.$.$.%.$.%.%.=.%.$.%.%.$.%.",
"-.-.;.;.>.;.;.,.-.'.>.).).-.;.).'.;.'.;.>.>.;.>.",
"!.!.~.{.{.!.!.].{.!.!.~.{.].^.{.^./.~.!.{.(.!.!.",
"_.:.<.:.<.<.[.:.}.:.:.:.<.|.<.:.<.<.:.:.}.:.:.1.",
"2.3.4.3.5.2.6.2.6.6.2.5.6.6.6.6.5.2.2.6.3.2.5.6.",
"7.7.8.9.7.7.0.7.8.7.8.7.7.7.9.9.7.8.7.7.9.0.7.7.",
"a.b.b.c.d.e.b.a.c.f.d.g.c.c.h.b.f.c.c.d.f.a.c.g."};
