/* XPM */
static char * hide_inactive_xpm[] = {
"24 26 139 2",
"  	c #FDEAD2",
". 	c #FDEBD3",
"+ 	c #FCEAD2",
"@ 	c #FDEAD3",
"# 	c #FCEAD3",
"$ 	c #FCE8CF",
"% 	c #FDE8CF",
"& 	c #FDE9CF",
"* 	c #FDE9CE",
"= 	c #FDE8CE",
"- 	c #FCE9CF",
"; 	c #FCE9CE",
"> 	c #FCE8CE",
", 	c #FCE7CB",
"' 	c #FCE7CC",
") 	c #FDE7CB",
"! 	c #FDE7CC",
"~ 	c #FCE6C7",
"{ 	c #FCE5C8",
"] 	c #FDE5C7",
"^ 	c #FCE6C8",
"/ 	c #FCE5C7",
"( 	c #FDE6C8",
"_ 	c #FCE3C4",
": 	c #FCE4C4",
"< 	c #FCE4C5",
"[ 	c #FBE4C4",
"} 	c #FBE4C5",
"| 	c #FCE3C0",
"1 	c #FBE2C0",
"2 	c #FCE2C1",
"3 	c #FCE2C0",
"4 	c #FBE2C1",
"5 	c #FCE3C1",
"6 	c #FCE1BD",
"7 	c #FBE0BD",
"8 	c #FBE1BD",
"9 	c #FCE0BD",
"0 	c #FBDFBA",
"a 	c #FBDFB9",
"b 	c #FCDFBA",
"c 	c #FCDFB9",
"d 	c #FBE0BA",
"e 	c #FCE0B9",
"f 	c #FBDDB6",
"g 	c #FBDEB6",
"h 	c #FBDDB5",
"i 	c #FBDEB5",
"j 	c #FADCB3",
"k 	c #FBDBB2",
"l 	c #FADCB2",
"m 	c #FBDCB3",
"n 	c #FBDCB2",
"o 	c #FADAAF",
"p 	c #FBDBAF",
"q 	c #FBDAAE",
"r 	c #FBDAAF",
"s 	c #FADBAF",
"t 	c #FBDBAE",
"u 	c #FBD8AB",
"v 	c #FAD8AB",
"w 	c #FBD9AB",
"x 	c #FAD9AB",
"y 	c #FAD9AC",
"z 	c #FBD9AC",
"A 	c #FBD7A8",
"B 	c #FAD7A8",
"C 	c #FAD8A8",
"D 	c #7D6B53",
"E 	c #FBD8A8",
"F 	c #FAD7A7",
"G 	c #FAD6A5",
"H 	c #FAD5A4",
"I 	c #FAD6A4",
"J 	c #FAD5A5",
"K 	c #F9D5A4",
"L 	c #F9D6A5",
"M 	c #FAD4A0",
"N 	c #F9D4A1",
"O 	c #FAD4A1",
"P 	c #F9D3A0",
"Q 	c #F9D4A0",
"R 	c #FAD39D",
"S 	c #FAD29D",
"T 	c #F9D39D",
"U 	c #F9D29D",
"V 	c #F9D29E",
"W 	c #FAD29E",
"X 	c #FAD19A",
"Y 	c #F9D19A",
"Z 	c #F9D199",
"` 	c #FAD199",
" .	c #F9D09A",
"..	c #F8CF96",
"+.	c #F9CF96",
"@.	c #F9CF97",
"#.	c #F9D096",
"$.	c #F9CE93",
"%.	c #F9CE92",
"&.	c #F8CD93",
"*.	c #F9CD92",
"=.	c #F8CE92",
"-.	c #F9CD93",
";.	c #F8CE93",
">.	c #F8CD92",
",.	c #F9CC8F",
"'.	c #F8CC8F",
").	c #F9CC90",
"!.	c #F8CB8F",
"~.	c #F8CB8C",
"{.	c #F9CA8D",
"].	c #F8CA8C",
"^.	c #F9CB8C",
"/.	c #F8CB8D",
"(.	c #F9CA8C",
"_.	c #F8CA8D",
":.	c #F8C989",
"<.	c #F8CA89",
"[.	c #F8C988",
"}.	c #F9C989",
"|.	c #F8C785",
"1.	c #F8C886",
"2.	c #F7C885",
"3.	c #F8C885",
"4.	c #F7C786",
"5.	c #F7C886",
"6.	c #F7C682",
"7.	c #F7C681",
"8.	c #F8C681",
"9.	c #F8C682",
"0.	c #F7C582",
"a.	c #F8C57F",
"b.	c #F8C47E",
"c.	c #F7C47F",
"d.	c #F7C47E",
"e.	c #F8C57E",
"f.	c #F7C57E",
"g.	c #F7C57F",
"h.	c #F0CE9F",
"  .         +   . @ # @ + .     @     @   + +   ",
"$ % & & * = $ = * & - & * & & = ; $ > & % * & $ ",
", , , , ' , , ) , ! ) ! ) ) ) ) ) , , ! , ) ) , ",
"~ { { ] ^ / ^ { { { ~ { ^ { { ^ ~ { ( { { { ( ^ ",
"_ _ _ _ : < : : < [ : : : } _ _ < : : : _ _ : : ",
"| 1 2 3 4 3 | 4 2 5 2 2 3 5 5 3 1 3 | 1 3 4 3 3 ",
"6 7 8 8 8 9 6 9 9 8 8 8 8 9 8 9 7 8 8 8 6 8 8 6 ",
"0 0 a b a c a a a 0 0 a d 0 e 0 a a a c a c a a ",
"f f g g f f g h g f g g f g f f f f f g g i f g ",
"j k k l l l l m j n j m n n n n n m m n n m n l ",
"o p o p o q p r o r s q t o s s s o r s o o o p ",
"u v w x y y w x u x v z x z y x w w x y x z y x ",
"A B B B A C B B D D D D D D D D C B B B B E F C ",
"G H I J K I H J D D D D D D D D H L G I J H J H ",
"M N O O N M O O O N O O O O O N N M O P Q Q O O ",
"R S T U S U U V U U R T U U W U S T T W V T T T ",
"X Y Y Z Y ` Z Y  . .Z Y Y X  .Y Y  .X  .Y  .Y Z ",
"..+.+.+.+.@...+.#.+.+...+.#.@.+.@.+.#...+...#.+.",
"$.$.%.$.&.*.=.*.-.%.=.;.-.$.$.>.$.%.$.=.*.*.%.&.",
",.'.'.).,.).,.,.,.,.'.'.,.,.,.'.'.'.,.,.'.'.!.,.",
"~.{.].~.^.~.].~.^.~.].~./.(./.~./.~./._.~.(./.~.",
":.:.:.:.:.:.<.<.:.<.:.:.[.:.:.:.:.<.:.:.:.:.}.:.",
"|.1.|.2.3.1.|.4.1.3.1.3.3.3.3.3.3.3.|.|.3.1.5.1.",
"6.6.7.8.7.6.9.9.6.6.6.9.9.9.8.6.6.6.7.8.7.7.0.9.",
"a.b.c.d.e.f.f.c.g.c.d.c.c.c.f.f.d.d.d.e.c.b.b.c.",
"h.h.h.h.h.h.h.h.h.h.h.h.h.h.h.h.h.h.h.h.h.h.h.h."};
