/* XPM */
static char * hide_prelight_xpm[] = {
"24 26 143 2",
"  	c #E5CEB0",
". 	c #E5CFB0",
"+ 	c #E5CEAF",
"@ 	c #E4CEAF",
"# 	c #E4CFB0",
"$ 	c #E4CEB0",
"% 	c #E5CFAF",
"& 	c #E4CDAD",
"* 	c #E4CDAE",
"= 	c #E4CCAD",
"- 	c #E3CCAD",
"; 	c #E3CDAD",
"> 	c #E4CCAE",
", 	c #E3CDAE",
"' 	c #E3CBAB",
") 	c #E4CBAB",
"! 	c #E3CCAB",
"~ 	c #E3CBAA",
"{ 	c #E3CCAA",
"] 	c #E2CAA8",
"^ 	c #E3CAA8",
"/ 	c #E2C9A8",
"( 	c #E3C9A8",
"_ 	c #E2CAA9",
": 	c #E2C9A9",
"< 	c #E1C9A6",
"[ 	c #E1C8A6",
"} 	c #E2C9A5",
"| 	c #E1C8A5",
"1 	c #E2C8A5",
"2 	c #E2C8A6",
"3 	c #E2C9A6",
"4 	c #E1C6A3",
"5 	c #E1C7A4",
"6 	c #E0C6A4",
"7 	c #E0C7A4",
"8 	c #E0C7A3",
"9 	c #E1C7A3",
"0 	c #E1C6A4",
"a 	c #DFC5A1",
"b 	c #E0C5A1",
"c 	c #E0C5A0",
"d 	c #E0C6A1",
"e 	c #DFC49E",
"f 	c #E0C39E",
"g 	c #DFC49F",
"h 	c #DFC39F",
"i 	c #E0C39F",
"j 	c #DFC39E",
"k 	c #E0C49F",
"l 	c #DEC29B",
"m 	c #DEC29C",
"n 	c #DFC29C",
"o 	c #DEC39C",
"p 	c #DFC39B",
"q 	c #DDC199",
"r 	c #DDC19A",
"s 	c #DEC099",
"t 	c #DDC099",
"u 	c #DEC19A",
"v 	c #DEC09A",
"w 	c #DDC09A",
"x 	c #DEC199",
"y 	c #DDBF97",
"z 	c #DCBF97",
"A 	c #DDBF96",
"B 	c #DCBE95",
"C 	c #DCBD95",
"D 	c #DCBE94",
"E 	c #DCBD94",
"F 	c #DBBC91",
"G 	c #DBBC92",
"H 	c #7D6B53",
"I 	c #DCBC92",
"J 	c #DBBA8F",
"K 	c #DBBA90",
"L 	c #DABB8F",
"M 	c #DABB90",
"N 	c #DABA8F",
"O 	c #DABA90",
"P 	c #DBBB90",
"Q 	c #DAB98D",
"R 	c #D9B98D",
"S 	c #DAB98C",
"T 	c #D9B78A",
"U 	c #D9B88A",
"V 	c #D9B88B",
"W 	c #D8B88B",
"X 	c #D8B78A",
"Y 	c #D9B78B",
"Z 	c #D8B688",
"` 	c #D9B688",
" .	c #D7B486",
"..	c #D8B486",
"+.	c #D8B485",
"@.	c #D8B585",
"#.	c #D7B485",
"$.	c #D7B585",
"%.	c #D8B586",
"&.	c #D7B586",
"*.	c #D7B383",
"=.	c #D6B383",
"-.	c #D6B283",
";.	c #D7B384",
">.	c #D6B180",
",.	c #D6B181",
"'.	c #D6B281",
").	c #D6B280",
"!.	c #D5B281",
"~.	c #D5B181",
"{.	c #D5B180",
"].	c #D5B17E",
"^.	c #D5B07F",
"/.	c #D6B07F",
"(.	c #D5B17F",
"_.	c #D6B17F",
":.	c #D6B07E",
"<.	c #D4AF7C",
"[.	c #D4AF7D",
"}.	c #D5AF7C",
"|.	c #D5AF7D",
"1.	c #D5AE7C",
"2.	c #D4AE7C",
"3.	c #D4AE7A",
"4.	c #D3AD7A",
"5.	c #D3AD79",
"6.	c #D4AE79",
"7.	c #D4AD7A",
"8.	c #D4AD79",
"9.	c #D3AE79",
"0.	c #D3AE7A",
"a.	c #D3AB78",
"b.	c #D3AC77",
"c.	c #D2AC77",
"d.	c #D3AC78",
"e.	c #D3AB77",
"f.	c #D3AA75",
"g.	c #D2AB74",
"h.	c #D3AA74",
"i.	c #D2AA74",
"j.	c #D2AA75",
"k.	c #D2AB75",
"l.	c #978164",
"    . + + @ #   .   $ # . %   @   %     # #   $ ",
"& * & = = = * & & & & * * * - * ; * = & > * , & ",
"' ' ' ' ) ! ' ' ' ~ ' ' ~ ' ' ' ! ' ' ' { ~ ' ' ",
"] ] ^ ] ^ ] ] / ( ( ^ _ ] ] ] ] ] : ] ] ] _ ] ^ ",
"< [ } < | 1 [ 2 | < 1 3 < [ 2 3 1 | [ < [ [ [ [ ",
"4 5 5 6 7 5 4 4 8 4 9 4 5 0 0 8 5 8 9 4 0 0 9 0 ",
"a b c b b b c d b b c b b b c d b b b b b b b a ",
"e f e e e g e h e i e e j f h e j f g h k j g e ",
"l m m m m n m m m m m n n n o n p o m n l m n m ",
"q r r q s s q t u q v q w q t u v x v r u s u q ",
"y y z A y y y y y y y y y y z y y y A y y y y y ",
"B C D D C E D C D D B D D E E E D C E B B E D E ",
"F G G G G G G G H H H H H H H H G G G G I G G G ",
"J J K L M N O P H H H H H H H H P L L P J N P L ",
"Q Q Q Q Q R Q Q Q Q Q Q Q Q Q Q Q Q Q S Q R Q Q ",
"T U T U T U T T V W X T V T U U U Y U W T Y Y V ",
"Z Z Z Z Z Z Z Z Z Z Z Z Z Z Z ` Z Z Z Z Z Z Z Z ",
" ...+.@.#.+. .+.@.#...#.$.%.@.&.&. .@.%.%.$. .&.",
"*.=.*.=.=.*.*.-.=.*.*.*.*.*.=.*.*.*.*.;.;.=.=.*.",
">.,.'.>.'.,.,.>.).!.,.'.~.{.).).,.,.).).,.).>.'.",
"].^.^.]./.^.].^.(./.^././.^.(.^.^.^.]._.^.:.^._.",
"<.[.}.[.}.<.|.1.<.2.|.2.<.|.<.2.<.}.<.<.}.[.1.}.",
"3.3.4.5.5.6.7.3.8.7.9.5.0.0.3.9.8.4.3.7.7.3.0.5.",
"a.b.c.d.b.b.b.b.d.b.e.b.b.b.b.a.e.e.d.d.e.b.a.b.",
"f.g.h.i.j.g.j.f.j.j.j.g.j.k.i.k.j.i.j.j.j.j.j.f.",
"l.l.l.l.l.l.l.l.l.l.l.l.l.l.l.l.l.l.l.l.l.l.l.l."};
