/* XPM */
static char * maximize_toggled_pressed_xpm[] = {
"24 25 125 2",
"  	c #C3AC8A",
". 	c #C3AC8B",
"+ 	c #C3AB8A",
"@ 	c #C4AC8A",
"# 	c #C4AB8B",
"$ 	c #C3AB8B",
"% 	c #C4AB8A",
"& 	c #C2AA89",
"* 	c #C2A989",
"= 	c #C2AA88",
"- 	c #C2A988",
"; 	c #C0A887",
"> 	c #C1A988",
", 	c #C1A887",
"' 	c #C0A987",
") 	c #C1A987",
"! 	c #BFA786",
"~ 	c #C0A786",
"{ 	c #BFA785",
"] 	c #C0A785",
"^ 	c #BEA584",
"/ 	c #BEA684",
"( 	c #BFA584",
"_ 	c #BFA684",
": 	c #BCA483",
"< 	c #BDA483",
"[ 	c #BDA482",
"} 	c #BDA582",
"| 	c #BCA482",
"1 	c #BBA381",
"2 	c #BCA281",
"3 	c #BBA281",
"4 	c #BCA381",
"5 	c #BCA380",
"6 	c #BBA280",
"7 	c #BAA17F",
"8 	c #BAA180",
"9 	c #BAA27F",
"0 	c #BAA280",
"a 	c #B8A07D",
"b 	c #B8A07E",
"c 	c #B9A07E",
"d 	c #B89F7E",
"e 	c #B99F7E",
"f 	c #B99F7D",
"g 	c #B79F7C",
"h 	c #B79E7C",
"i 	c #B89E7C",
"j 	c #B89F7C",
"k 	c #B79E7D",
"l 	c #B79F7D",
"m 	c #B89F7D",
"n 	c #7D6B53",
"o 	c #B69C7B",
"p 	c #B69D7B",
"q 	c #B69D7A",
"r 	c #B59B79",
"s 	c #B59C7A",
"t 	c #B59C79",
"u 	c #B49C79",
"v 	c #B49B79",
"w 	c #B59B7A",
"x 	c #B39A77",
"y 	c #B49B78",
"z 	c #B39A78",
"A 	c #B39B77",
"B 	c #B49A77",
"C 	c #B49A78",
"D 	c #B49B77",
"E 	c #B29876",
"F 	c #B39976",
"G 	c #B29976",
"H 	c #B39876",
"I 	c #B19874",
"J 	c #B19774",
"K 	c #B19775",
"L 	c #B09774",
"M 	c #B09673",
"N 	c #AF9673",
"O 	c #B09573",
"P 	c #AE9472",
"Q 	c #AF9571",
"R 	c #AE9471",
"S 	c #AE9572",
"T 	c #AE9571",
"U 	c #AF9471",
"V 	c #AD936F",
"W 	c #AD9370",
"X 	c #AC9370",
"Y 	c #AC936F",
"Z 	c #AD9270",
"` 	c #AC916E",
" .	c #AB916E",
"..	c #AB926E",
"+.	c #AC916F",
"@.	c #AC926F",
"#.	c #AC926E",
"$.	c #AB926F",
"%.	c #AA906D",
"&.	c #AB906D",
"*.	c #AA906C",
"=.	c #A98E6B",
"-.	c #A98F6B",
";.	c #A98E6C",
">.	c #A88F6C",
",.	c #A98F6C",
"'.	c #A78D6A",
").	c #A88D6A",
"!.	c #A78D69",
"~.	c #A88D69",
"{.	c #A88E6A",
"].	c #A88E69",
"^.	c #A78E6A",
"/.	c #A68C68",
"(.	c #A78C68",
"_.	c #A68B68",
":.	c #A78B68",
"<.	c #A58A67",
"[.	c #A58B66",
"}.	c #A58A66",
"|.	c #A58B67",
"1.	c #A38965",
"2.	c #A48965",
"3.	c #A38865",
"4.	c #A48865",
"  . + + @ # @ + $   + % % $ + % + $ %   %   $ % ",
"& * & & & = * & & & * & - & * & = = & & & & * & ",
"; > , ; ; > ' , , ' ) , ; ' , ; , ) ; , , , , ' ",
"! ~ ~ { ~ ! ] ! ! ! ~ ! ! { { ~ ! { { ] { ] ] { ",
"^ ^ / / ( / ^ / / / _ / ^ / ^ / / / / ^ ^ / ^ / ",
": < : [ < [ [ } [ [ : | < [ < < [ < < [ } : } [ ",
"1 2 2 1 1 3 4 2 3 5 1 1 4 1 4 3 2 4 6 1 3 1 2 1 ",
"7 7 8 7 8 8 8 9 7 8 8 0 9 9 7 7 8 8 7 8 7 7 8 7 ",
"a b c b c b c d c c e b c c c b c b c b d b f c ",
"g h i j k l m g n n n n n n n n h h h k h k h i ",
"o p q p q p p p n n n n n n n n q p p p p p p p ",
"r s t t u t r u n n t r v v n n u t w t t u t s ",
"x y z A x x x x n n B C z B n n A z C C y x D C ",
"E F G G G E G H n n E G G E n n F E F H G E E G ",
"I J J K J K J K n n J L K J n n J J K J J I K J ",
"M M M M N O M N n n n n n n n n N O N N M M M M ",
"P Q R R R S R P n n n n n n n n P T R R T R U R ",
"V W W W V W W X Y X Z W V V W W W W V W W W X V ",
"`  . ...+.` @.` ` `  .#.#.#.$.#.#.` +. . .` ` ..",
"%.&.%.%.%.%.%.*.%.%.%.%.%.%.%.%.&.%.%.%.%.%.%.*.",
"=.=.-.;.=.=.=.;.>.=.-.;.-.,.=.-.-.=.=.=.-.=.=.=.",
"'.'.).).).!.'.!.!.!.).~.~.{.].).!.^.'.'.'.!.).].",
"/.(./._.:./././._././._.(._./.(./././.(./.(./._.",
"<.[.<.}.<.}.<.<.}.[.}.<.[.<.}.<.<.[.}.|.}.}.|.<.",
"1.2.1.1.2.2.1.2.2.2.1.2.1.2.2.3.2.4.2.1.2.1.2.2."};
