/* XPM */
static char * maximize_inactive_xpm[] = {
"24 26 129 2",
"  	c #FCEAD2",
". 	c #FCEBD3",
"+ 	c #FCEBD2",
"@ 	c #FBEBD3",
"# 	c #FBEAD2",
"$ 	c #FCEAD3",
"% 	c #FCE8CF",
"& 	c #FBE9CE",
"* 	c #FCE9CF",
"= 	c #FBE9CF",
"- 	c #FCE8CE",
"; 	c #FCE9CE",
"> 	c #FBE8CF",
", 	c #FCE7CC",
"' 	c #FCE7CB",
") 	c #FBE7CB",
"! 	c #FBE7CC",
"~ 	c #FCE5C7",
"{ 	c #FCE5C8",
"] 	c #FBE5C7",
"^ 	c #FBE6C7",
"/ 	c #FCE6C7",
"( 	c #FCE6C8",
"_ 	c #FBE5C8",
": 	c #FBE3C4",
"< 	c #FBE4C4",
"[ 	c #FBE4C5",
"} 	c #FCE3C4",
"| 	c #FBE2C0",
"1 	c #FBE2C1",
"2 	c #FBE3C0",
"3 	c #FBE3C1",
"4 	c #FBE0BD",
"5 	c #FBE1BD",
"6 	c #FAE1BD",
"7 	c #FAE0BD",
"8 	c #FBE1BE",
"9 	c #FAE0BA",
"0 	c #FBDFB9",
"a 	c #FADFB9",
"b 	c #FBDFBA",
"c 	c #FADFBA",
"d 	c #FADEB6",
"e 	c #FADDB6",
"f 	c #FBDEB6",
"g 	c #FBDDB6",
"h 	c #FADCB3",
"i 	c #FADCB2",
"j 	c #7D6B53",
"k 	c #FBDBB3",
"l 	c #FBDCB2",
"m 	c #FADAAF",
"n 	c #FADBAF",
"o 	c #FADAAE",
"p 	c #FAD8AB",
"q 	c #FAD9AB",
"r 	c #FAD9AC",
"s 	c #F9D9AB",
"t 	c #F9D8AC",
"u 	c #FAD7A8",
"v 	c #F9D7A8",
"w 	c #F9D8A8",
"x 	c #F9D7A7",
"y 	c #FAD7A7",
"z 	c #F9D6A4",
"A 	c #F9D5A4",
"B 	c #FAD6A4",
"C 	c #F9D6A5",
"D 	c #FAD5A4",
"E 	c #FAD5A5",
"F 	c #F9D5A5",
"G 	c #F9D4A0",
"H 	c #FAD4A1",
"I 	c #F9D4A1",
"J 	c #FAD3A1",
"K 	c #F9D3A0",
"L 	c #F9D39D",
"M 	c #F9D29D",
"N 	c #F9D29E",
"O 	c #F8D09A",
"P 	c #F9D199",
"Q 	c #F9D19A",
"R 	c #F9D09A",
"S 	c #F8D19A",
"T 	c #F9CF96",
"U 	c #F8D096",
"V 	c #F8CF96",
"W 	c #F9CF97",
"X 	c #F9D096",
"Y 	c #F8CE93",
"Z 	c #F9CE93",
"` 	c #F8CD93",
" .	c #F9CE92",
"..	c #F9CD93",
"+.	c #F8CE92",
"@.	c #F9CD92",
"#.	c #F8CC8F",
"$.	c #F9CC8F",
"%.	c #F8CC90",
"&.	c #F8CB8F",
"*.	c #F8CB8C",
"=.	c #F9CB8C",
"-.	c #F8CB8D",
";.	c #F9CB8D",
">.	c #F8CA8C",
",.	c #F8CA8D",
"'.	c #F8C989",
").	c #F8CA89",
"!.	c #F7C989",
"~.	c #F7C785",
"{.	c #F7C885",
"].	c #F8C786",
"^.	c #F8C885",
"/.	c #F8C785",
"(.	c #F8C886",
"_.	c #F7C786",
":.	c #F8C682",
"<.	c #F8C681",
"[.	c #F7C681",
"}.	c #F7C682",
"|.	c #F7C582",
"1.	c #F8C47F",
"2.	c #F7C47E",
"3.	c #F8C57E",
"4.	c #F7C57F",
"5.	c #F7C57E",
"6.	c #F8C47E",
"7.	c #F7C47F",
"8.	c #F0CE9F",
"    .       + +               . @ +     # $ + $ ",
"% & * = % - * = * - - ; % % ; * % * > % = % * % ",
", ' ' , ) ) ) ) ' ) ) ) ! ' ) ' ) ) ) ) ) ) ' ) ",
"~ { ] { ^ / ( ] ] ^ / ( _ / ] { / ( / _ { _ ( ( ",
": < < < < < < < < < < < < : [ < < < < : } < < : ",
"| 1 | 2 2 2 3 | | 2 1 | | 1 3 1 1 | 1 1 | 1 2 1 ",
"4 5 4 6 4 7 5 4 6 4 5 5 6 5 8 5 5 4 5 5 4 4 5 5 ",
"9 0 a 0 0 b 9 c c c b a 0 0 c a c a b 0 b 0 0 c ",
"d e d f e e e e d d f e f e e d e e e g e g e d ",
"h i i h i i h i j j j j j j j j k l i h i l h h ",
"m m m m m m n m j j j j j j j j o m m m o n m n ",
"p q r p s q q t j j r q q q j j q r q r q p q r ",
"u u u v v v w u j j v v v u j j u v u v x u u y ",
"z A A B B A z C j j z A B D j j E z A D F B C F ",
"G H I I I G G I j j G I I J j j I I I G I K G J ",
"L M M L L L M N j j j j j j j j L M L L M L M M ",
"O P P Q Q R P S j j j j j j j j O Q Q R P P Q R ",
"T T U T T T T V W T V T T T T T V T V W X V U T ",
"Y Z Z ` Y Z  .Y Z `  ...` Y ` +...Y ` @.Y ` +.Y ",
"#.$.#.#.#.#.#.#.#.#.#.#.%.#.#.$.#.&.#.#.$.&.%.&.",
"*.=.-.-.;.-.;.*.*.-.*.>.-.*.*.-.-.*.,.,.>.*.*.*.",
"'.'.'.'.).'.'.).'.'.'.'.'.).'.!.'.!.'.'.'.'.'.!.",
"~.{.].^.]././.]./.(.{.^.]._.^.(._././.~./././._.",
":.<.:.[.}.:.}.}.:.[.}.:.|.}.:.:.}.:.}.}.:.:.}.:.",
"1.2.3.3.4.1.5.3.2.2.3.6.3.3.2.2.2.5.2.2.2.3.5.7.",
"8.8.8.8.8.8.8.8.8.8.8.8.8.8.8.8.8.8.8.8.8.8.8.8."};
