/* XPM */
static char * maximize_toggled_active_xpm[] = {
"24 26 134 2",
"  	c #E5CFB0",
". 	c #E5CEB0",
"+ 	c #E5CFAF",
"@ 	c #E4CEB0",
"# 	c #E5CEAF",
"$ 	c #E4CFAF",
"% 	c #E4CEAF",
"& 	c #E4CFB0",
"* 	c #E4CCAD",
"= 	c #E4CDAD",
"- 	c #E4CDAE",
"; 	c #E3CDAD",
"> 	c #E3CDAE",
", 	c #E3CCAD",
"' 	c #E3CBAB",
") 	c #E3CBAA",
"! 	c #E3CCAA",
"~ 	c #E3CCAB",
"{ 	c #E2CAA8",
"] 	c #E2CAA9",
"^ 	c #E3CAA8",
"/ 	c #E3CAA9",
"( 	c #E2C9A8",
"_ 	c #E3C9A8",
": 	c #E2C9A9",
"< 	c #E2C8A6",
"[ 	c #E1C8A6",
"} 	c #E2C9A6",
"| 	c #E2C8A5",
"1 	c #E1C9A6",
"2 	c #E1C9A5",
"3 	c #E1C8A5",
"4 	c #E1C6A3",
"5 	c #E1C7A3",
"6 	c #E0C7A4",
"7 	c #E0C7A3",
"8 	c #E1C6A4",
"9 	c #E1C7A4",
"0 	c #E0C6A3",
"a 	c #E0C5A1",
"b 	c #E0C5A0",
"c 	c #E0C6A1",
"d 	c #E0C6A0",
"e 	c #DFC39F",
"f 	c #DFC49E",
"g 	c #DFC39E",
"h 	c #DFC49F",
"i 	c #E0C39E",
"j 	c #E0C49E",
"k 	c #DFC29C",
"l 	c #DFC29B",
"m 	c #DEC29C",
"n 	c #DEC29B",
"o 	c #DEC39C",
"p 	c #DFC39B",
"q 	c #DFC39C",
"r 	c #DEC099",
"s 	c #DEC199",
"t 	c #DDC099",
"u 	c #DEC19A",
"v 	c #1F1B15",
"w 	c #DDC19A",
"x 	c #DDC199",
"y 	c #DDBF97",
"z 	c #DCBF97",
"A 	c #DCC097",
"B 	c #DDBF96",
"C 	c #DCBE94",
"D 	c #DCBD94",
"E 	c #DCBD95",
"F 	c #DCBE95",
"G 	c #DBBC92",
"H 	c #DCBC92",
"I 	c #DBBD92",
"J 	c #DABB8F",
"K 	c #DABA90",
"L 	c #DBBB8F",
"M 	c #DBBB90",
"N 	c #DBBA8F",
"O 	c #DABA8F",
"P 	c #DABB90",
"Q 	c #DBBA90",
"R 	c #DAB98D",
"S 	c #D9B98D",
"T 	c #D9B88B",
"U 	c #D9B78A",
"V 	c #D9B78B",
"W 	c #D9B88A",
"X 	c #D8B688",
"Y 	c #D9B688",
"Z 	c #D8B587",
"` 	c #D8B586",
" .	c #D7B586",
"..	c #D7B384",
"+.	c #D7B383",
"@.	c #D6B383",
"#.	c #D7B484",
"$.	c #D6B484",
"%.	c #D7B483",
"&.	c #D6B281",
"*.	c #D6B181",
"=.	c #D7B281",
"-.	c #D6B282",
";.	c #D6B182",
">.	c #D6B17E",
",.	c #D5B07F",
"'.	c #D5B07E",
").	c #D6B17F",
"!.	c #D5B17F",
"~.	c #D5B17E",
"{.	c #D6B07F",
"].	c #D5AF7C",
"^.	c #D4AE7C",
"/.	c #D4AF7D",
"(.	c #D4AF7C",
"_.	c #D5AF7D",
":.	c #D4AD79",
"<.	c #D4AE7A",
"[.	c #D3AD7A",
"}.	c #D4AD7A",
"|.	c #D4AE79",
"1.	c #D3AE7A",
"2.	c #D3AB77",
"3.	c #D3AB78",
"4.	c #D3AC78",
"5.	c #D3AC77",
"6.	c #D2AB75",
"7.	c #D2AB74",
"8.	c #D2AA75",
"9.	c #D3AB75",
"0.	c #D2AA74",
"a.	c #D3AA75",
"b.	c #D3AA74",
"c.	c #978164",
"  . . . . + @ @ @ # $ . + # @ # @ + @ . . % # & ",
"* = - * ; = - = - > = = * * * - * = - = = , = * ",
"' ' ' ) ' ! ) ' ' ~ ' ' ' ' ~ ~ ~ ' ' ' ' ~ ' ! ",
"{ ] { ^ { ^ / ] ( _ ( ( ^ / ( { ] ( : ^ ^ ] ( : ",
"< [ } < [ < < | < < 1 < [ 2 } [ | [ 1 3 3 | < < ",
"4 5 5 6 5 7 4 5 7 4 4 5 4 8 5 9 9 6 9 7 5 8 0 5 ",
"a a a a b a b a a a a c a a a c a a a a a a d a ",
"e f g f h f h f h f h f i h e j h f j j j g e g ",
"k k l m n m m m m o m m k k o m k k k p q k o q ",
"r s s r t u u s v v v v v v v v s u w t r r s x ",
"y y y z y z y y v v v v v v v v A z y y y A z B ",
"C D E D E F C C v v C E C D v v E F F D C D C C ",
"G H H H G H G G v v I H G G v v G G G H G I I G ",
"J K J L M K K N v v K K O P v v Q M N L L N M Q ",
"R R R S R S R S v v R S R R v v S R R R R S R R ",
"T T U V V W W U v v v v v v v v V W U W U T U W ",
"X X X X X X Y X v v v v v v v v Y X Y X X X X Y ",
"Z `  .` ` Z ` `  .`  .` `  .Z  .` ` ` ` ` `  .` ",
"............+.+...@.@...#.+.$.....%.+.....+.%.+.",
"&.&.*.=.&.&.&.-.=.&.&.-.&.&.-.;.&.-.&.&.=.&.-.&.",
">.,.,.'.,.,.,.,.,.).!.,.~.).'.{.'.'.'.,.,.,.,.,.",
"].^./.^././.(.(./.(.^.(.^._.].(.].(.(./.].].(.].",
":.<.<.[.:.[.}.}.|.:.<.}.}.|.:.[.<.1.[.}.}.<.[.<.",
"2.3.4.2.3.4.3.4.3.5.5.5.4.3.4.5.5.5.5.5.5.4.5.5.",
"6.7.8.8.6.9.9.0.8.8.a.0.b.0.0.8.8.6.6.8.8.0.8.b.",
"c.c.c.c.c.c.c.c.c.c.c.c.c.c.c.c.c.c.c.c.c.c.c.c."};
