/* XPM */
static char * maximize_prelight_xpm[] = {
"24 26 138 2",
"  	c #E4CEB0",
". 	c #E5CEB0",
"+ 	c #E5CEAF",
"@ 	c #E4CFB0",
"# 	c #E5CFB0",
"$ 	c #E4CCAE",
"% 	c #E4CDAD",
"& 	c #E4CCAD",
"* 	c #E4CDAE",
"= 	c #E3CCAD",
"- 	c #E3CBAB",
"; 	c #E3CBAA",
"> 	c #E3CCAA",
", 	c #E3CCAB",
"' 	c #E4CBAB",
") 	c #E3C9A8",
"! 	c #E2C9A9",
"~ 	c #E2C9A8",
"{ 	c #E2CAA9",
"] 	c #E2CAA8",
"^ 	c #E3CAA8",
"/ 	c #E3CAA9",
"( 	c #E1C8A6",
"_ 	c #E2C8A5",
": 	c #E2C9A6",
"< 	c #E2C8A6",
"[ 	c #E1C9A5",
"} 	c #E1C8A5",
"| 	c #E1C9A6",
"1 	c #E1C7A3",
"2 	c #E0C7A3",
"3 	c #E1C6A3",
"4 	c #E1C7A4",
"5 	c #E1C6A4",
"6 	c #E0C6A3",
"7 	c #E0C7A4",
"8 	c #E0C5A1",
"9 	c #E0C5A0",
"0 	c #E0C6A0",
"a 	c #E0C6A1",
"b 	c #DFC5A1",
"c 	c #DFC49E",
"d 	c #DFC39F",
"e 	c #DFC49F",
"f 	c #DFC39E",
"g 	c #E0C39E",
"h 	c #E0C49E",
"i 	c #E0C49F",
"j 	c #DEC29C",
"k 	c #DFC29C",
"l 	c #DEC29B",
"m 	c #DFC29B",
"n 	c #DEC39C",
"o 	c #DEC099",
"p 	c #DDC09A",
"q 	c #DDC19A",
"r 	c #DEC19A",
"s 	c #DEC09A",
"t 	c #DEC199",
"u 	c #7D6B53",
"v 	c #DDC099",
"w 	c #DDC199",
"x 	c #DDC097",
"y 	c #DDBF97",
"z 	c #DCBF97",
"A 	c #DCBF96",
"B 	c #DCBD94",
"C 	c #DCBE95",
"D 	c #DCBD95",
"E 	c #DDBD94",
"F 	c #DCBE94",
"G 	c #DBBC92",
"H 	c #DCBC92",
"I 	c #DBBC91",
"J 	c #DBBB90",
"K 	c #DABB90",
"L 	c #DBBA90",
"M 	c #DABB91",
"N 	c #DAB98E",
"O 	c #DABA8E",
"P 	c #DABA8D",
"Q 	c #DAB98D",
"R 	c #D9B88B",
"S 	c #D9B78B",
"T 	c #D9B88C",
"U 	c #DAB88B",
"V 	c #D9B789",
"W 	c #D8B689",
"X 	c #D9B788",
"Y 	c #D9B689",
"Z 	c #D8B789",
"` 	c #D8B688",
" .	c #D9B688",
"..	c #D8B586",
"+.	c #D7B587",
"@.	c #D7B586",
"#.	c #D7B483",
"$.	c #D6B383",
"%.	c #D7B384",
"&.	c #D7B484",
"*.	c #D7B383",
"=.	c #D6B384",
"-.	c #D6B281",
";.	c #D7B281",
">.	c #D6B181",
",.	c #D6B282",
"'.	c #D5B17F",
").	c #D5B17E",
"!.	c #D5B07F",
"~.	c #D6B07F",
"{.	c #D5B07E",
"].	c #D6B17F",
"^.	c #D5AF7C",
"/.	c #D4AF7C",
"(.	c #D4AF7D",
"_.	c #D5AF7D",
":.	c #D4AE7D",
"<.	c #D5AE7C",
"[.	c #D4AE7C",
"}.	c #D4AD79",
"|.	c #D4AE7A",
"1.	c #D4AD7A",
"2.	c #D3AD79",
"3.	c #D3AD7A",
"4.	c #D3AE79",
"5.	c #D4AE79",
"6.	c #D3AB77",
"7.	c #D3AC77",
"8.	c #D3AB78",
"9.	c #D3AC78",
"0.	c #D2AC77",
"a.	c #D2AA75",
"b.	c #D2AB74",
"c.	c #D3AA75",
"d.	c #D2AA74",
"e.	c #D2AB75",
"f.	c #D3AB75",
"g.	c #978164",
"        . . . + .   . @ +   . # . . # . @   @ + ",
"$ % & % $ & * * % & % = % $ % & % % % = & * * % ",
"- - - - - - ; ; - ; - - > - , - - ' ; ; - - - - ",
") ! ~ { ] ! { { { ^ { ] { ] { ^ ^ { ] / ~ ] ^ ^ ",
"( _ : < ( ( ( ( [ < < _ } _ < ( ( } [ < < _ | ( ",
"1 2 3 4 1 4 5 1 3 1 6 6 2 3 5 3 2 3 7 3 4 5 1 5 ",
"8 9 8 8 8 0 8 0 a 8 8 0 8 8 8 8 a 0 9 8 8 8 b b ",
"c d c e c d f f e g d e h c g f e c c i f e e f ",
"j k k k k j j k j l j j m n j j k j k j k l k j ",
"o p q o r s q t u u u u u u u u v s r t s w o p ",
"x y z y y y y y u u u u u u u u y z A y y z y y ",
"B C B B C D E F u u F D F B u u F B D C D B C F ",
"G G H G H G G G u u G H G H u u G H I G H G G G ",
"J J J K K J J J u u J J J J u u K L K K J K M K ",
"N O P Q N O P O u u N N N Q u u N N P N O O O N ",
"R S T R S R R U u u u u u u u u R S R U S R R R ",
"V W V W X Y Z ` u u u u u u u u Y X  . .W V Z Z ",
"..........+.....@...@.....@.@.@.@...@...@...@.@.",
"#.$.%.&.$.*.*.%.*.#.#.%.#.%.&.%.#.%.&.%.=.&.*.&.",
"-.-.;.-.-.-.>.-.-.>.>.-.-.-.-.,.,.-.-.-.-.,.-.>.",
"'.).'.!.).~.'.!.).{.'.'.].!.~.!.).!.!.!.'.~.'.!.",
"^./.^./.(.^.(.^._././.:.^.(.^._././.^.<.^./.<.[.",
"}.|.1.1.2.|.2.|.|.1.1.3.3.4.|.|.|.}.5.1.}.}.1.|.",
"6.7.7.8.6.7.9.7.7.7.6.7.0.7.6.7.6.7.8.7.9.7.7.0.",
"a.b.b.a.a.c.c.a.d.a.e.a.e.c.f.f.a.c.d.e.a.c.c.c.",
"g.g.g.g.g.g.g.g.g.g.g.g.g.g.g.g.g.g.g.g.g.g.g.g."};
