/* XPM */
static char * maximize_pressed_xpm[] = {
"24 25 127 2",
"  	c #C3AB8A",
". 	c #C4AB8A",
"+ 	c #C4AC8A",
"@ 	c #C3AC8A",
"# 	c #C3AB8B",
"$ 	c #C3AC8B",
"% 	c #C4AB8B",
"& 	c #C2AA88",
"* 	c #C2A989",
"= 	c #C2AA89",
"- 	c #C2A988",
"; 	c #C3AA89",
"> 	c #C1A887",
", 	c #C1A987",
"' 	c #C1A888",
") 	c #C0A887",
"! 	c #C0A987",
"~ 	c #C0A888",
"{ 	c #BFA786",
"] 	c #BFA785",
"^ 	c #C0A785",
"/ 	c #C0A786",
"( 	c #BEA684",
"_ 	c #BFA684",
": 	c #BEA584",
"< 	c #BFA585",
"[ 	c #BDA483",
"} 	c #BDA482",
"| 	c #BCA482",
"1 	c #BDA583",
"2 	c #BCA483",
"3 	c #BCA281",
"4 	c #BBA381",
"5 	c #BBA380",
"6 	c #BBA280",
"7 	c #BCA381",
"8 	c #BBA281",
"9 	c #BAA27F",
"0 	c #BAA280",
"a 	c #BAA180",
"b 	c #BAA17F",
"c 	c #B99F7E",
"d 	c #B8A07D",
"e 	c #B9A07E",
"f 	c #B8A07E",
"g 	c #B89F7E",
"h 	c #B99F7D",
"i 	c #B9A07D",
"j 	c #B89E7D",
"k 	c #B79F7C",
"l 	c #B89E7C",
"m 	c #B89F7C",
"n 	c #B79F7D",
"o 	c #B79E7C",
"p 	c #7D6B53",
"q 	c #B69D7B",
"r 	c #B79D7B",
"s 	c #B69C7A",
"t 	c #B69D7A",
"u 	c #B69C7B",
"v 	c #B59C79",
"w 	c #B59B79",
"x 	c #B49C79",
"y 	c #B49B79",
"z 	c #B59C7A",
"A 	c #B49A77",
"B 	c #B49A78",
"C 	c #B39A77",
"D 	c #B39A78",
"E 	c #B29876",
"F 	c #B29976",
"G 	c #B39976",
"H 	c #B39876",
"I 	c #B19775",
"J 	c #B19875",
"K 	c #B19874",
"L 	c #B19774",
"M 	c #AF9673",
"N 	c #B09673",
"O 	c #B09573",
"P 	c #AE9572",
"Q 	c #AE9472",
"R 	c #AF9471",
"S 	c #AF9472",
"T 	c #AE9471",
"U 	c #AF9571",
"V 	c #AD9370",
"W 	c #AD9270",
"X 	c #AD936F",
"Y 	c #AC9370",
"Z 	c #AB916E",
"` 	c #AC916E",
" .	c #AC926E",
"..	c #AC926F",
"+.	c #AB926F",
"@.	c #AB926E",
"#.	c #AC916F",
"$.	c #AB906D",
"%.	c #AA906D",
"&.	c #AA906C",
"*.	c #AB906C",
"=.	c #A98F6B",
"-.	c #A88E6C",
";.	c #A98E6B",
">.	c #A98E6C",
",.	c #A98F6C",
"'.	c #A88D6A",
").	c #A78D6A",
"!.	c #A88E69",
"~.	c #A78D69",
"{.	c #A88D69",
"].	c #A78E6A",
"^.	c #A68B68",
"/.	c #A78C68",
"(.	c #A78B68",
"_.	c #A68C68",
":.	c #A48A66",
"<.	c #A58B66",
"[.	c #A58A67",
"}.	c #A58A66",
"|.	c #A58B67",
"1.	c #A48965",
"2.	c #A38864",
"3.	c #A38865",
"4.	c #A38964",
"5.	c #A48865",
"6.	c #A38965",
"    .             +   +   +   @   . @   # + $ % ",
"& * & = = = = & & = = = & = = - ; & & = - = = = ",
"> , > ' > ) ' ) > ! > > > > , , , ) , , ~ > ! , ",
"{ ] ] ] { { ^ / / ] ] ^ { { { ] ^ { ^ / { { ] { ",
"( _ : : : : : ( : ( ( ( : ( ( ( ( < : _ : : : ( ",
"[ } [ } | } 1 2 1 [ | | } } [ 2 [ } [ [ [ [ } [ ",
"3 4 4 5 6 7 4 4 4 4 8 4 8 7 7 7 3 7 4 4 7 8 7 7 ",
"9 0 a 0 0 9 b b a b b b 9 b b b b b b a a 9 a 9 ",
"c d e c e e e f c e d g h f g e e c e e e e i h ",
"j k l m n o o o p p p p p p p p m o m o j m o o ",
"q q r q s q t t p p p p p p p p t r q t q s u q ",
"v v v w w x y y p p w v y x p p v x v y z w y v ",
"A B B A C C C D p p B B D C p p C D B D D D B D ",
"E F F E G F F F p p F E F E p p F F F F F F E H ",
"I I I I I J K I p p L I I I p p L L I L I I J I ",
"M M N M N N N N p p p p p p p p M N M N M M O M ",
"P Q R S T U S T p p p p p p p p Q R S T T T S Q ",
"V W X X V V X V V V X V V Y V V V V X V V V V Y ",
"Z `  ... .Z Z  .` Z ..` Z Z +. .+.Z @...#.#.@. .",
"$.%.%.%.$.&.$.*.&.%.%.%.%.&.%.%.%.&.$.%.%.$.&.%.",
"=.-.;.=.;.>.=.>.=.;.=.;.;.>.,.;.=.=.=.=.=.=.=.;.",
"'.'.).!.).'.~.~.'.'.'.'.'.{.~.'.).].'.{.~.'.{.{.",
"^.^././.(.^././.^.^.(.^./._.^././.(._._.^./.^.^.",
":.<.[.<.}.[.[.[.[.<.}.}.}.[.<.}.}.|.}.}.|.[.}.[.",
"1.1.1.2.3.1.1.1.4.5.1.1.1.6.6.1.1.4.6.1.6.1.4.1."};
