/* XPM */
static char * menu_pressed_xpm[] = {
"24 16 81 1",
" 	c #C3AA89",
".	c #C3AB89",
"+	c #C2AB89",
"@	c #C2AB8A",
"#	c #C3AA8A",
"$	c #C2AA8A",
"%	c #C2AA89",
"&	c #C3AB8A",
"*	c #C0A887",
"=	c #C1A887",
"-	c #C0A987",
";	c #C0A886",
">	c #C1A987",
",	c #BEA684",
"'	c #BFA685",
")	c #BEA584",
"!	c #BFA684",
"~	c #BEA685",
"{	c #BDA382",
"]	c #BCA382",
"^	c #BCA482",
"/	c #BDA482",
"(	c #BAA17F",
"_	c #BAA180",
":	c #BBA180",
"<	c #BAA280",
"[	c #BAA27F",
"}	c #B89F7D",
"|	c #B69D7A",
"1	c #B69C7B",
"2	c #B69D7B",
"3	c #B69C7A",
"4	c #B59D7B",
"5	c #B59C7B",
"6	c #B49B79",
"7	c #B49A78",
"8	c #B39B78",
"9	c #B49B78",
"0	c #B39A78",
"a	c #B19775",
"b	c #B19875",
"c	c #B29775",
"d	c #B29875",
"e	c #B29874",
"f	c #B19874",
"g	c #AF9573",
"h	c #AF9572",
"i	c #AF9673",
"j	c #AF9672",
"k	c #B09573",
"l	c #B09572",
"m	c #AD9370",
"n	c #AB906E",
"o	c #AB916E",
"p	c #AA916E",
"q	c #AB916D",
"r	c #AA906E",
"s	c #AB906D",
"t	c #AA906D",
"u	c #A88E6B",
"v	c #A98E6B",
"w	c #A98F6B",
"x	c #A88F6B",
"y	c #A98F6C",
"z	c #A78C69",
"A	c #A78D69",
"B	c #A68C68",
"C	c #A68C69",
"D	c #A78C68",
"E	c #A68D69",
"F	c #A48A67",
"G	c #A58966",
"H	c #A48A66",
"I	c #A58A66",
"J	c #A58A67",
"K	c #A38864",
"L	c #A28864",
"M	c #A38863",
"N	c #A38764",
"O	c #A38763",
"P	c #A28764",
" .+@# . $%. ++#& $   & %",
"*=-*-===**;**==-****>***",
",',,)!!!,,!~,!~'~,,!,,,,",
"{]]^{]]^]/^//]^/^^{]^]]]",
"((__(((:<<_<_[_[<__(_(_(",
"}}}}}}}}}}}}}}}}}}}}}}}}",
"|1|21|22|12|||321||2|245",
"677897977770677997997676",
"abaacdeddafcbabaabbafbfb",
"ghiiihhgjgjggghigkgiihgl",
"mmmmmmmmmmmmmmmmmmmmmmmm",
"nopoonpqrrqosoooqqqsqqot",
"uvvwxvvvuwvwwvvvwvwvwywv",
"zABCDzECDzBDDDCCEzzzzDzB",
"FGHFIHJHHIIHIFIIIIIIIIII",
"KLKMNOLLMPKMNKPNMMNKKKPM"};
