/* XPM */
static char * shade_prelight_xpm[] = {
"24 26 134 2",
"  	c #E5CEB0",
". 	c #E4CFAF",
"+ 	c #E5CFB0",
"@ 	c #E4CFB0",
"# 	c #E4CEB0",
"$ 	c #E4CEAF",
"% 	c #E5CEAF",
"& 	c #E4CDAE",
"* 	c #E4CDAD",
"= 	c #E4CCAD",
"- 	c #E3CDAD",
"; 	c #E3CCAD",
"> 	c #E4CCAE",
", 	c #E4CBAB",
"' 	c #E3CCAB",
") 	c #E3CBAB",
"! 	c #E3CBAA",
"~ 	c #E3CAA8",
"{ 	c #E2CAA8",
"] 	c #E3C9A9",
"^ 	c #E2C9A9",
"/ 	c #E2CAA9",
"( 	c #E2C9A8",
"_ 	c #E3CAA9",
": 	c #E1C8A6",
"< 	c #E2C8A6",
"[ 	c #E2C9A6",
"} 	c #E1C9A5",
"| 	c #E1C8A5",
"1 	c #E1C9A6",
"2 	c #E0C7A3",
"3 	c #E1C7A4",
"4 	c #E1C7A3",
"5 	c #E0C6A4",
"6 	c #E1C6A3",
"7 	c #E1C6A4",
"8 	c #E0C6A3",
"9 	c #E0C7A4",
"0 	c #E0C5A1",
"a 	c #E0C5A0",
"b 	c #E0C6A1",
"c 	c #DFC5A0",
"d 	c #DFC39E",
"e 	c #DFC49E",
"f 	c #DFC49F",
"g 	c #E0C39F",
"h 	c #DFC39F",
"i 	c #E0C49F",
"j 	c #E0C39E",
"k 	c #DEC39C",
"l 	c #DFC29C",
"m 	c #DEC29C",
"n 	c #DEC29B",
"o 	c #DFC29B",
"p 	c #DFC39C",
"q 	c #DDC199",
"r 	c #DEC099",
"s 	c #DEC09A",
"t 	c #DEC19A",
"u 	c #DEC199",
"v 	c #7D6B53",
"w 	c #DDC099",
"x 	c #DDBF97",
"y 	c #DCBF97",
"z 	c #DDC097",
"A 	c #DCBD94",
"B 	c #DCBD95",
"C 	c #DCBE94",
"D 	c #DBBC92",
"E 	c #DBBD92",
"F 	c #DCBC91",
"G 	c #DBBC91",
"H 	c #DCBC92",
"I 	c #DBBB8F",
"J 	c #DABB8F",
"K 	c #DBBA8F",
"L 	c #DBBA90",
"M 	c #DABA8F",
"N 	c #DABA90",
"O 	c #DBBB90",
"P 	c #DAB98D",
"Q 	c #DABA8D",
"R 	c #DAB98C",
"S 	c #D9B98D",
"T 	c #D9B78A",
"U 	c #D9B88B",
"V 	c #D9B78B",
"W 	c #D9B88A",
"X 	c #D8B88A",
"Y 	c #D8B688",
"Z 	c #D9B688",
"` 	c #D8B485",
" .	c #D7B586",
"..	c #D7B485",
"+.	c #D7B486",
"@.	c #D8B486",
"#.	c #D7B585",
"$.	c #D8B585",
"%.	c #D8B586",
"&.	c #D7B383",
"*.	c #D6B383",
"=.	c #D6B180",
"-.	c #D6B280",
";.	c #D5B281",
">.	c #D6B181",
",.	c #D5B180",
"'.	c #D5B181",
").	c #D5B07E",
"!.	c #D5B07F",
"~.	c #D4AE7C",
"{.	c #D4AF7C",
"].	c #D4AF7B",
"^.	c #D5AE7C",
"/.	c #D5AF7C",
"(.	c #D5AF7B",
"_.	c #D4AE7B",
":.	c #D4AD79",
"<.	c #D3AD79",
"[.	c #D3AD7A",
"}.	c #D4AC79",
"|.	c #D3AC7A",
"1.	c #D3AC79",
"2.	c #D4AD7A",
"3.	c #D2AB77",
"4.	c #D3AC77",
"5.	c #D3AB77",
"6.	c #D2AB76",
"7.	c #D3AB76",
"8.	c #D2AC77",
"9.	c #D3AC76",
"0.	c #D2AA74",
"a.	c #D1A974",
"b.	c #D2A974",
"c.	c #978164",
"  .     +   @       #   +   # # $ + % +       + ",
"& * & = = - & * & * & & * = * * * * - ; > * = & ",
", ' ) ) ) ) ) ' ) ) ! ! ) ) ) ) ! ) ) ) ) ) ! ) ",
"~ ~ { { { ] ] { { ^ { { { / { ~ ( { { / ( { _ { ",
": < [ < < < : [ : } : < < < : : < < [ : < < | 1 ",
"2 3 4 5 4 2 6 4 4 4 4 5 7 8 3 7 4 9 2 4 4 4 5 8 ",
"0 0 0 a b 0 0 0 0 0 a a c 0 a 0 a 0 0 b 0 a 0 0 ",
"d e d d e e d f g f d h f e i e e j h e e d d d ",
"k l m m n l o o l k o k l m m n p l m p l l m l ",
"q r q s t t u s u t r v v r t r w r s s q t u r ",
"x x y y z x x x x x v v v v x x x x y y y y y x ",
"A A A A B C B B A v v v v v v C B C C A C A C B ",
"D D E F D D G H v v v v v v v v D D D D D H D H ",
"I J K L J L M v v v N v v K v v v O O L J N J O ",
"P P P P P P P P P P Q v v P P P P P P P P R S P ",
"T T T U V T V U W W W v v T T V T V X W V W W U ",
"Y Y Y Z Y Y Y Y Y Y Z v v Y Y Y Y Y Y Y Y Y Y Z ",
"`  ...+.+.`  .+.@.` +...+.....#.$.` #.+.+.%...$.",
"&.&.*.&.&.&.&.&.&.*.&.&.&.*.*.*.&.&.*.&.&.&.&.*.",
"=.-.-.=.;.=.>.-.>.=.-.,.;.,.;.'.>.=.'.=.-.>.=.>.",
").).).).).).).).).).).).).!.!.).).).).).).).).).",
"~.{.].].~.{.].~.~.~.^.{.]./.~.~.^.{.].{.(.~._./.",
":.:.<.:.[.}.<.<.|.:.1.:.<.1.}.<.<.:.<.:.:.2.:.:.",
"3.4.5.4.6.5.5.7.6.7.5.3.8.3.7.9.5.7.5.5.4.4.5.7.",
"0.0.0.0.0.0.0.0.0.0.0.a.0.0.0.0.0.0.0.0.0.0.0.b.",
"c.c.c.c.c.c.c.c.c.c.c.c.c.c.c.c.c.c.c.c.c.c.c.c."};
