/* XPM */
static char * shade_active_xpm[] = {
"24 26 133 2",
"  	c #E5CFB0",
". 	c #E5CEB0",
"+ 	c #E5CEAF",
"@ 	c #E4CEB0",
"# 	c #E4CFB0",
"$ 	c #E4CEAF",
"% 	c #E4CFAF",
"& 	c #E5CFAF",
"* 	c #E3CDAE",
"= 	c #E4CCAD",
"- 	c #E4CDAD",
"; 	c #E4CDAE",
"> 	c #E3CCAE",
", 	c #E3CDAD",
"' 	c #E4CCAE",
") 	c #E3CCAB",
"! 	c #E3CBAA",
"~ 	c #E3CBAB",
"{ 	c #E4CBAB",
"] 	c #E3CCAA",
"^ 	c #E2CAA9",
"/ 	c #E2C9A8",
"( 	c #E3C9A8",
"_ 	c #E3CAA8",
": 	c #E2CAA8",
"< 	c #E3C9A9",
"[ 	c #E2C9A9",
"} 	c #E1C8A6",
"| 	c #E2C8A6",
"1 	c #E1C9A6",
"2 	c #E1C8A5",
"3 	c #E2C9A6",
"4 	c #E2C8A5",
"5 	c #E1C6A4",
"6 	c #E0C7A3",
"7 	c #E0C7A4",
"8 	c #E1C6A3",
"9 	c #E1C7A3",
"0 	c #E1C7A4",
"a 	c #E0C5A1",
"b 	c #E0C5A0",
"c 	c #DFC49E",
"d 	c #DFC39E",
"e 	c #E0C49E",
"f 	c #DFC39F",
"g 	c #DFC49F",
"h 	c #DFC29C",
"i 	c #DEC29C",
"j 	c #DEC39B",
"k 	c #DEC39C",
"l 	c #DEC29B",
"m 	c #DEC199",
"n 	c #DDC099",
"o 	c #DEC09A",
"p 	c #DEC19A",
"q 	c #DDC199",
"r 	c #DEC099",
"s 	c #1F1B15",
"t 	c #DDC19A",
"u 	c #DDBF97",
"v 	c #DDC097",
"w 	c #DCBF97",
"x 	c #DDBF96",
"y 	c #DCBE94",
"z 	c #DCBD95",
"A 	c #DCBE95",
"B 	c #DCBD94",
"C 	c #DDBD94",
"D 	c #DBBC91",
"E 	c #DBBC92",
"F 	c #DCBC92",
"G 	c #DCBD92",
"H 	c #DBBB8F",
"I 	c #DBBB90",
"J 	c #DBBA8F",
"K 	c #DBBA90",
"L 	c #DABB90",
"M 	c #DABB8F",
"N 	c #DABA8F",
"O 	c #DAB98D",
"P 	c #D9B98D",
"Q 	c #D9B78A",
"R 	c #D9B88B",
"S 	c #D9B78B",
"T 	c #D9B88A",
"U 	c #D8B78B",
"V 	c #D8B688",
"W 	c #D9B688",
"X 	c #D7B485",
"Y 	c #D7B585",
"Z 	c #D7B486",
"` 	c #D7B586",
" .	c #D8B585",
"..	c #D8B486",
"+.	c #D8B485",
"@.	c #D8B586",
"#.	c #D6B383",
"$.	c #D7B383",
"%.	c #D7B283",
"&.	c #D6B180",
"*.	c #D6B280",
"=.	c #D6B181",
"-.	c #D6B281",
";.	c #D5B280",
">.	c #D5B181",
",.	c #D5B180",
"'.	c #D5B281",
").	c #D5B07E",
"!.	c #D6B07E",
"~.	c #D5AF7F",
"{.	c #D5AF7E",
"].	c #D4AF7C",
"^.	c #D4AE7C",
"/.	c #D4AE7B",
"(.	c #D5AE7C",
"_.	c #D5AF7C",
":.	c #D4AD7A",
"<.	c #D4AE7A",
"[.	c #D3AE7A",
"}.	c #D4AE79",
"|.	c #D3AD79",
"1.	c #D4AD79",
"2.	c #D3AD7A",
"3.	c #D2AC77",
"4.	c #D3AC77",
"5.	c #D3AB77",
"6.	c #D3AC78",
"7.	c #D2AB75",
"8.	c #D2AA75",
"9.	c #D2AA74",
"0.	c #D2AB74",
"a.	c #D3AA75",
"b.	c #978164",
"  .   . + @ # . .   @ $ . @ % @ . . . + & . .   ",
"* = - - ; * ; - = ; > > ; - - ; , - - - = , ' ' ",
") ! ~ { ! ) ~ ~ ~ ] ~ ~ ! ! ~ ) ~ ~ ) ] ~ ~ ! ~ ",
"^ / ( / _ : : ^ ( : < _ ^ : : _ / ^ : ( _ [ : ^ ",
"} | 1 2 | 3 | } } 2 2 | | 2 2 4 4 | 1 } } | 4 4 ",
"5 6 6 7 7 8 9 5 6 5 8 5 6 6 0 9 6 9 9 8 9 9 0 5 ",
"a a a a b a a a b b b a a a a a a a a a a a a a ",
"c d d c e d c c f d c d c f g d d f c d c c g g ",
"h i j i i i i h k i i i i l l i i i h i i h l h ",
"m n o p q r r m p r m s s r r r t m t t q n q m ",
"u u u v u u u u u v s s s s u u u u w u x u u x ",
"y z y A y y B y y s s s s s s B A C z B B A B z ",
"D E E F E E D F s s s s s s s s E F E E E G E E ",
"H I J K H K I s s s I s s L s s s L H M N K J K ",
"O O O P P O O O O O O s s O P P P O O O O O O P ",
"Q Q R R S R R T R T R s s Q T T Q R R U R S R T ",
"V V V V V V W W V V V s s V V V V V W V V V V V ",
"X Y Z ` X  ...Z +.X Y @.Z ` Y ..` +.X ` @.@.+.@.",
"#.#.#.$.#.$.#.$.#.$.#.#.%.#.$.$.#.$.$.#.#.$.$.$.",
"&.&.&.*.&.=.&.=.=.-.;.;.-.*.-.>.,.&.*.,.&.'.&.*.",
").).!.).).~.).).).).).).!.).).).).).).).).).{.).",
"].^.].]./.].^.(.]._.^.].].^.].^.^.^.].^./.].].^.",
":.<.[.}.|.<.:.|.:.1.1.:.2.:.1.1.1.<.:.<.<.[.:.}.",
"3.4.4.4.5.4.6.4.6.6.6.4.4.4.5.4.4.6.4.4.5.4.4.4.",
"7.8.8.9.9.8.0.a.8.9.8.9.9.8.a.9.7.8.9.8.8.8.9.7.",
"b.b.b.b.b.b.b.b.b.b.b.b.b.b.b.b.b.b.b.b.b.b.b.b."};
