/* XPM */
static char * shade_pressed_xpm[] = {
"24 25 126 2",
"  	c #C3AC8A",
". 	c #C3AB8A",
"+ 	c #C4AB8A",
"@ 	c #C4AB8B",
"# 	c #C3AC8B",
"$ 	c #C2AA88",
"% 	c #C2AA89",
"& 	c #C2A989",
"* 	c #C1A987",
"= 	c #C1A887",
"- 	c #C0A988",
"; 	c #C1A888",
"> 	c #C0A987",
", 	c #C0A786",
"' 	c #C0A785",
") 	c #BFA686",
"! 	c #BFA786",
"~ 	c #BFA785",
"{ 	c #BEA584",
"] 	c #BEA684",
"^ 	c #BDA483",
"/ 	c #BDA482",
"( 	c #BCA483",
"_ 	c #BCA482",
": 	c #BCA582",
"< 	c #BBA381",
"[ 	c #BBA380",
"} 	c #BBA281",
"| 	c #BCA281",
"1 	c #BCA380",
"2 	c #BCA381",
"3 	c #BAA17F",
"4 	c #BAA27F",
"5 	c #BAA180",
"6 	c #BAA280",
"7 	c #B89F7E",
"8 	c #B99F7E",
"9 	c #B9A07D",
"0 	c #B9A07E",
"a 	c #B8A07E",
"b 	c #B99F7D",
"c 	c #B79E7C",
"d 	c #B79F7C",
"e 	c #B89E7C",
"f 	c #B79E7D",
"g 	c #7D6B53",
"h 	c #B89E7D",
"i 	c #B89F7C",
"j 	c #B89F7D",
"k 	c #B69D7A",
"l 	c #B69D7B",
"m 	c #B79D7A",
"n 	c #B79D7B",
"o 	c #B59C7A",
"p 	c #B59C79",
"q 	c #B49C79",
"r 	c #B59B7A",
"s 	c #B59B79",
"t 	c #B49B79",
"u 	c #B39A78",
"v 	c #B39A77",
"w 	c #B49A78",
"x 	c #B49A77",
"y 	c #B39B77",
"z 	c #B29876",
"A 	c #B29976",
"B 	c #B39976",
"C 	c #B19775",
"D 	c #B09775",
"E 	c #B19774",
"F 	c #B19874",
"G 	c #B19875",
"H 	c #AF9673",
"I 	c #B09673",
"J 	c #B09573",
"K 	c #AF9672",
"L 	c #AF9471",
"M 	c #AE9471",
"N 	c #AE9572",
"O 	c #AE9472",
"P 	c #AF9472",
"Q 	c #AE9571",
"R 	c #AD9270",
"S 	c #AD9370",
"T 	c #AD936F",
"U 	c #AC9370",
"V 	c #AB926F",
"W 	c #AB916F",
"X 	c #AC926E",
"Y 	c #AC916E",
"Z 	c #AB916E",
"` 	c #AC916F",
" .	c #AB926E",
"..	c #AA906D",
"+.	c #AA906C",
"@.	c #AB906C",
"#.	c #AB906D",
"$.	c #A98E6B",
"%.	c #A98F6B",
"&.	c #A88F6B",
"*.	c #A88E6C",
"=.	c #A98E6C",
"-.	c #A88D6A",
";.	c #A88D69",
">.	c #A78D6A",
",.	c #A78D69",
"'.	c #A88E6A",
").	c #A78E69",
"!.	c #A88E69",
"~.	c #A68C68",
"{.	c #A78C68",
"].	c #A78B68",
"^.	c #A68B68",
"/.	c #A68C69",
"(.	c #A68B69",
"_.	c #A58A66",
":.	c #A58B67",
"<.	c #A58A67",
"[.	c #A58B66",
"}.	c #A38965",
"|.	c #A48964",
"1.	c #A48865",
"2.	c #A48965",
"3.	c #A38865",
"4.	c #A38964",
"5.	c #A38864",
"    . . . . . + .   + . @ . . + # @ .   @ . . # ",
"$ % % & % % % % $ & % & & % $ $ & % % % % $ % % ",
"* * = * * - * - = * * = - ; * = = = > * = * * = ",
", ' , , ' ) ' , ! ~ ~ ~ , ' ! ~ ~ , ! ! ! ' ! ~ ",
"{ ] { { { ] ] ] { { ] ] ] ] ] ] { { ] ] { { ] ] ",
"^ / ^ ( _ ( ^ / _ / _ / / ( ^ _ _ / : ( ^ / _ / ",
"< < < [ < [ } | < < } 1 } 2 | < < < < | | < < | ",
"3 3 4 4 3 3 3 5 5 3 3 6 6 5 5 5 6 3 3 3 5 5 6 3 ",
"7 8 9 0 0 0 0 0 a 0 8 7 0 0 8 0 8 a 0 b 0 0 0 9 ",
"c d e d e e c c e f c g g h d c i e e i j c c f ",
"k l m l m l l l k k g g g g l l n l l l m l n k ",
"o p q p q r o r s g g g g g g r t p s s r p p t ",
"u v w u u u v v g g g g g g g g w v w v x x y u ",
"z A B A z B A g g g A g g A g g g A z A A z z A ",
"C D C E E F C C E G E g g C C C F C E E G F C E ",
"H I H H H I H I I I I g g H I I H H J H H J K K ",
"L M L N L M O P P M O g g O O M N Q M M L M M M ",
"R S R T S S S S R S U S T S U U S S S R R T R T ",
"V W X Y X Z X Y Z V ` X Y Z  .Z Z  .Y  .Y X X Y ",
"........+.....@.#.+...+.......#...........#.....",
"$.%.&.$.%.*.$.%.$.=.%.%.$.$.$.%.$.$.=.$.$.%.=.$.",
"-.;.>.,.-.'.-.,.'.-.;.,.-.>.-.>.-.,.).;.!.,.-.;.",
"~.~.~.{.~.~.].{.^./.~.(.~.{.~.{.~.].(.^.~.~.].~.",
"_._.:.<.<.<._.:.<.<.<._.:._._.:._.<._.:.[.[._.<.",
"}.|.1.1.2.1.2.3.4.2.2.1.5.2.2.5.1.2.2.1.}.}.2.2."};
