/* XPM */
static char * shade_toggled_prelight_xpm[] = {
"24 26 138 2",
"  	c #E4CEB0",
". 	c #E5CEB0",
"+ 	c #E5CFB0",
"@ 	c #E5CEAF",
"# 	c #E4CEAF",
"$ 	c #E5CFAF",
"% 	c #E4CFB0",
"& 	c #E4CDAD",
"* 	c #E4CCAD",
"= 	c #E3CCAE",
"- 	c #E4CDAE",
"; 	c #E3CDAD",
"> 	c #E3CCAD",
", 	c #E3CCAA",
"' 	c #E3CBAB",
") 	c #E3CBAA",
"! 	c #E3CCAB",
"~ 	c #E4CBAB",
"{ 	c #E2CAA8",
"] 	c #E3C9A8",
"^ 	c #E3CAA8",
"/ 	c #E2C9A8",
"( 	c #E2C9A9",
"_ 	c #E3CAA9",
": 	c #E2CAA9",
"< 	c #E2C8A6",
"[ 	c #E1C8A6",
"} 	c #E1C8A5",
"| 	c #E2C8A5",
"1 	c #E1C9A6",
"2 	c #E2C9A6",
"3 	c #E1C7A3",
"4 	c #E0C6A3",
"5 	c #E0C7A3",
"6 	c #E1C7A4",
"7 	c #E1C6A3",
"8 	c #E0C7A4",
"9 	c #E1C6A4",
"0 	c #E0C5A1",
"a 	c #E0C6A1",
"b 	c #E0C5A0",
"c 	c #E0C6A0",
"d 	c #DFC5A1",
"e 	c #DFC49F",
"f 	c #DFC49E",
"g 	c #DFC39F",
"h 	c #E0C39E",
"i 	c #E0C49F",
"j 	c #E0C49E",
"k 	c #DFC39E",
"l 	c #DFC29C",
"m 	c #DEC39C",
"n 	c #DEC29C",
"o 	c #DFC29B",
"p 	c #DEC099",
"q 	c #DDC09A",
"r 	c #DDC19A",
"s 	c #DEC09A",
"t 	c #DEC19A",
"u 	c #DDC099",
"v 	c #7D6B53",
"w 	c #DEC199",
"x 	c #DDBF97",
"y 	c #DDC097",
"z 	c #DDBF96",
"A 	c #DCBF97",
"B 	c #DCBE95",
"C 	c #DCBD94",
"D 	c #DCBE94",
"E 	c #DCBD95",
"F 	c #DCBC92",
"G 	c #DBBC92",
"H 	c #DBBD92",
"I 	c #DABA90",
"J 	c #DABB90",
"K 	c #DBBA90",
"L 	c #DBBA8F",
"M 	c #DBBB8F",
"N 	c #DABA8F",
"O 	c #DABB8F",
"P 	c #D9B98D",
"Q 	c #D9B98C",
"R 	c #DAB98D",
"S 	c #DAB98C",
"T 	c #D9B88A",
"U 	c #D8B88B",
"V 	c #D9B78B",
"W 	c #D9B88B",
"X 	c #D9B78A",
"Y 	c #D8B688",
"Z 	c #D9B687",
"` 	c #D9B688",
" .	c #D8B585",
"..	c #D7B585",
"+.	c #D7B485",
"@.	c #D7B586",
"#.	c #D7B486",
"$.	c #D8B486",
"%.	c #D8B485",
"&.	c #D8B586",
"*.	c #D7B383",
"=.	c #D6B383",
"-.	c #D6B180",
";.	c #D6B281",
">.	c #D6B280",
",.	c #D6B181",
"'.	c #D5B181",
").	c #D5B17F",
"!.	c #D5B07E",
"~.	c #D5B17E",
"{.	c #D6B07F",
"].	c #D5B07F",
"^.	c #D6B17F",
"/.	c #D5AE7D",
"(.	c #D4AF7D",
"_.	c #D5AF7C",
":.	c #D4AF7C",
"<.	c #D4AE7C",
"[.	c #D5AE7C",
"}.	c #D5AF7D",
"|.	c #D3AD7A",
"1.	c #D4AE7A",
"2.	c #D4AD7A",
"3.	c #D3AD79",
"4.	c #D4AD79",
"5.	c #D4AE79",
"6.	c #D3AB77",
"7.	c #D3AC77",
"8.	c #D3AC78",
"9.	c #D3AB78",
"0.	c #D2AB75",
"a.	c #D2AA74",
"b.	c #D3AA74",
"c.	c #D3AB75",
"d.	c #D2AA75",
"e.	c #D2AB74",
"f.	c #D3AA75",
"g.	c #978164",
"  . . + + @ + + # + $ + $ . @   . % % . . . @ @ ",
"& * & & * & * = - - * & ; & ; * & > * & & * * ; ",
", ' ' ' ) ) ' ! ) ! ) ) ! ' ! ' ' ' ~ ) ' ' ~ ' ",
"{ ] ^ { / { ( / ( ^ _ ^ / ( _ { { ] { / : { { { ",
"< < [ } [ [ < [ < [ [ [ [ | [ [ [ 1 [ < 2 [ } < ",
"3 4 5 6 3 6 6 7 8 9 4 3 6 4 6 6 8 6 7 5 9 3 3 5 ",
"0 a b c b 0 0 b 0 0 0 0 0 a b 0 a 0 0 a a d 0 a ",
"e f g h e f i j k g e f h f e h k f k e g g e f ",
"l m m n n l n l n l o l n n n n l l n n n n l m ",
"p q p r s p p t u s p v v q w u q w w w t q u w ",
"x y x x x z x x x x z v v y y A x x x x x x x y ",
"B C D C B D C C D C D v v C D D C D E C B C D D ",
"F F G G G G G v v v G v v G v v v G G G G F G H ",
"I J K L I M I L v v v v v v v v N N J O J N K J ",
"P P P Q P R P R R v v v v v v S R P P R R R R R ",
"T U V V T W T X X X v v v v V V T T X T T W V X ",
"Y Y Y Z Y Y Y ` Y Y Y v v Y Y Y ` Y Y Y Y Y ` Y ",
" ...+...@.#.+.$.@.@.#.+.%.@.@.$.$. .#.@.&.&.....",
"*.*.*.*.=.*.*.*.=.*.=.*.*.*.=.*.*.*.*.*.*.*.=.*.",
"-.;.>.>.,.>.-.-.>.;.;.-.-.>.,.-.'.;.>.;.-.>.-.;.",
").!.~.{.!.!.).].).~.].).!.{.^.{.].].!.].).].!.!.",
"/.(._.:._._._.<._.(._.[.:.:._.:.}._.}._.:._._.:.",
"|.1.2.1.3.4.2.2.5.2.1.2.1.1.1.2.5.4.2.2.|.4.2.3.",
"6.7.6.7.7.7.8.7.6.7.7.7.7.8.9.7.9.7.7.7.7.7.7.7.",
"0.a.a.b.0.c.d.a.d.d.d.d.d.d.a.a.0.e.d.f.d.f.d.c.",
"g.g.g.g.g.g.g.g.g.g.g.g.g.g.g.g.g.g.g.g.g.g.g.g."};
