/* XPM */
static char * shade_inactive_xpm[] = {
"24 26 132 2",
"  	c #FDEBD3",
". 	c #FDEAD2",
"+ 	c #FDEAD3",
"@ 	c #FDEBD2",
"# 	c #FCEAD2",
"$ 	c #FCEAD3",
"% 	c #FCEBD2",
"& 	c #FDE9CF",
"* 	c #FCE9CE",
"= 	c #FDE9CE",
"- 	c #FCE9CF",
"; 	c #FDE8CF",
"> 	c #FCE8CF",
", 	c #FDE8CE",
"' 	c #FDE7CC",
") 	c #FCE7CB",
"! 	c #FDE7CB",
"~ 	c #FCE5C7",
"{ 	c #FCE6C7",
"] 	c #FCE5C8",
"^ 	c #FCE6C8",
"/ 	c #FDE6C8",
"( 	c #FDE5C8",
"_ 	c #FCE4C4",
": 	c #FBE4C4",
"< 	c #FCE3C4",
"[ 	c #FCE4C5",
"} 	c #FCE3C5",
"| 	c #FCE3C0",
"1 	c #FBE2C0",
"2 	c #FBE3C1",
"3 	c #FCE3C1",
"4 	c #FBE2C1",
"5 	c #FCE2C0",
"6 	c #FCE2C1",
"7 	c #FBE1BD",
"8 	c #FCE0BD",
"9 	c #FCE1BD",
"0 	c #FBE0BD",
"a 	c #FBDFB9",
"b 	c #FBDFBA",
"c 	c #FCDFBA",
"d 	c #FCDFB9",
"e 	c #FCE0B9",
"f 	c #FBE0BA",
"g 	c #FBDDB6",
"h 	c #FBDEB6",
"i 	c #FBDEB5",
"j 	c #FCDEB6",
"k 	c #FBDCB3",
"l 	c #FBDCB2",
"m 	c #FBDBB2",
"n 	c #FBDBB3",
"o 	c #7D6B53",
"p 	c #FADCB2",
"q 	c #FADAAF",
"r 	c #FBDAAF",
"s 	c #FBDBAF",
"t 	c #FBDAAE",
"u 	c #FADBAF",
"v 	c #FADBAE",
"w 	c #FAD9AB",
"x 	c #FBD9AC",
"y 	c #FBD9AB",
"z 	c #FAD8AB",
"A 	c #FAD9AC",
"B 	c #FAD8AC",
"C 	c #FAD7A8",
"D 	c #FAD7A7",
"E 	c #FAD6A6",
"F 	c #FAD6A5",
"G 	c #FAD5A5",
"H 	c #FAD4A1",
"I 	c #F9D4A1",
"J 	c #FAD5A2",
"K 	c #F9D4A2",
"L 	c #F9D5A1",
"M 	c #FAD4A2",
"N 	c #FAD5A1",
"O 	c #F9D5A2",
"P 	c #FAD29E",
"Q 	c #FAD39E",
"R 	c #F9D39E",
"S 	c #F9D29E",
"T 	c #F9D19B",
"U 	c #F9D29A",
"V 	c #F9D19A",
"W 	c #FAD29A",
"X 	c #F9D29B",
"Y 	c #FAD19A",
"Z 	c #FAD19B",
"` 	c #F9CF97",
" .	c #F9D097",
"..	c #F9CE94",
"+.	c #F8CE94",
"@.	c #F8CE93",
"#.	c #F9CE93",
"$.	c #F9CD93",
"%.	c #F9CD90",
"&.	c #F8CC90",
"*.	c #F9CC90",
"=.	c #F9CB8D",
"-.	c #F9CA8D",
";.	c #F8CB8C",
">.	c #F8CA8C",
",.	c #F8CB8D",
"'.	c #F9CB8C",
").	c #F8CA8D",
"!.	c #F9CA8C",
"~.	c #F8C989",
"{.	c #F8C988",
"].	c #F8CA89",
"^.	c #F9C989",
"/.	c #F7C786",
"(.	c #F8C785",
"_.	c #F8C886",
":.	c #F8C786",
"<.	c #F7C885",
"[.	c #F7C886",
"}.	c #F7C785",
"|.	c #F8C885",
"1.	c #F7C682",
"2.	c #F8C681",
"3.	c #F8C682",
"4.	c #F8C47E",
"5.	c #F7C47E",
"6.	c #F7C47F",
"7.	c #F8C47F",
"8.	c #F8C57F",
"9.	c #F8C57E",
"0.	c #F7C57E",
"a.	c #F0CE9F",
"  . . .   + . @   # + . . + @ + @ + $ + . + . % ",
"& * = - & & ; & - = > , * & & > , - & - ; > & ; ",
"' ) ) ! ) ! ) ! ) ) ) ! ) ! ! ' ! ! ! ! ) ) ' ) ",
"~ { ] ~ ] ] ] ^ ~ ^ ~ / ^ ] ^ ^ ^ ] ^ { ] { ] ( ",
"_ _ _ _ : < _ _ _ _ _ : _ _ < _ < _ _ _ _ [ } [ ",
"| 1 2 3 | 4 1 1 5 4 3 1 6 5 5 1 5 6 1 5 6 | 6 | ",
"7 8 9 7 7 9 9 7 8 7 0 8 8 9 9 0 9 9 9 7 7 0 7 0 ",
"a b c c d b b b b d e a b a b b d a a b f d b c ",
"g h g g i h h h h h h g g j h h h h h g h h g h ",
"k l l l l m l l k l n o o p k n l k n l l l m l ",
"q q r s t r s q r r o o o o s u r r v u r s u v ",
"w x y z A w A w x o o o o o o w z A w A A A B y ",
"C D C C C C C C o o o o o o o o C C C C C C D D ",
"E F F F F F F o o o F o o F o o o F F E E F G F ",
"H I H J H K H K L K M o o M M I J N M M O M H J ",
"P P Q R P R Q P Q R R o o R R S R R R Q R P P Q ",
"T U T V T T T V V W X o o V T V U Y V T T Z T V ",
"` `  . .` ` `  .`  . . . .`  .`  . .`  .` `  . .",
"..+.....@.+.@.....#.....#.#.#.@.....#.......+.$.",
"%.&.&.*.*.&.*.*.&.&.&.&.%.*.*.*.*.&.%.&.*.&.*.&.",
"=.-.;.>.>.,.;.,.;.'.,.;.,.).'.,.>.,.,.;.,.!.'.'.",
"~.~.~.~.{.~.].~.~.^.~.~.].{.~.~.].~.~.~.~.{.~.{.",
"/.(._.(.:.<.<.(.[.(.}.:.(._.|._.}.:.(._.(.|.:.:.",
"1.2.3.2.3.1.1.1.1.3.3.2.2.1.3.3.1.1.3.3.3.2.3.3.",
"4.5.5.6.5.5.4.5.4.7.8.4.9.5.6.0.9.0.9.0.4.4.4.5.",
"a.a.a.a.a.a.a.a.a.a.a.a.a.a.a.a.a.a.a.a.a.a.a.a."};
