/* XPM */
static char * shade_toggled_pressed_xpm[] = {
"24 25 134 2",
"  	c #C4AB8A",
". 	c #C3AB8A",
"+ 	c #C3AC8B",
"@ 	c #C4AC8A",
"# 	c #C3AB8B",
"$ 	c #C3AC8A",
"% 	c #C4AC8B",
"& 	c #C4AB8B",
"* 	c #C2A989",
"= 	c #C2AA89",
"- 	c #C2AA88",
"; 	c #C0A887",
"> 	c #C0A888",
", 	c #C1A987",
"' 	c #C1A887",
") 	c #C0A987",
"! 	c #C1A888",
"~ 	c #C0A988",
"{ 	c #BFA686",
"] 	c #BFA786",
"^ 	c #C0A786",
"/ 	c #C0A785",
"( 	c #BFA685",
"_ 	c #C0A685",
": 	c #BFA785",
"< 	c #BEA584",
"[ 	c #BEA684",
"} 	c #BFA584",
"| 	c #BCA483",
"1 	c #BDA483",
"2 	c #BDA482",
"3 	c #BDA583",
"4 	c #BCA582",
"5 	c #BCA583",
"6 	c #BBA381",
"7 	c #BBA281",
"8 	c #BCA381",
"9 	c #BCA380",
"0 	c #BBA280",
"a 	c #BBA380",
"b 	c #BCA281",
"c 	c #BAA17F",
"d 	c #BAA180",
"e 	c #BAA27F",
"f 	c #BBA17F",
"g 	c #BAA280",
"h 	c #B99F7E",
"i 	c #B8A07E",
"j 	c #B9A07E",
"k 	c #B99F7D",
"l 	c #B9A07D",
"m 	c #B89E7D",
"n 	c #B89F7D",
"o 	c #B89F7C",
"p 	c #B79F7C",
"q 	c #B79E7C",
"r 	c #B89E7C",
"s 	c #7D6B53",
"t 	c #B79E7D",
"u 	c #B69D7B",
"v 	c #B69C7A",
"w 	c #B69D7A",
"x 	c #B79C7B",
"y 	c #B79D7B",
"z 	c #B69C7B",
"A 	c #B59C7A",
"B 	c #B59B79",
"C 	c #B59C79",
"D 	c #B49B79",
"E 	c #B49C79",
"F 	c #B49C7A",
"G 	c #B49A77",
"H 	c #B39A77",
"I 	c #B49A78",
"J 	c #B39A78",
"K 	c #B29976",
"L 	c #B29876",
"M 	c #B39976",
"N 	c #B29977",
"O 	c #B19775",
"P 	c #B19774",
"Q 	c #B19874",
"R 	c #B19875",
"S 	c #B09774",
"T 	c #AF9573",
"U 	c #B09672",
"V 	c #B09573",
"W 	c #AF9673",
"X 	c #B09673",
"Y 	c #AF9472",
"Z 	c #AE9571",
"` 	c #AE9471",
" .	c #AE9472",
"..	c #AE9572",
"+.	c #AF9471",
"@.	c #AD9370",
"#.	c #AD9270",
"$.	c #AC936F",
"%.	c #AC9370",
"&.	c #AD936F",
"*.	c #AD926F",
"=.	c #AC916E",
"-.	c #AB916E",
";.	c #AB916F",
">.	c #AC926E",
",.	c #AB926E",
"'.	c #AB906D",
").	c #AA906D",
"!.	c #AB906C",
"~.	c #AA906C",
"{.	c #A98F6B",
"].	c #A98E6C",
"^.	c #A98E6B",
"/.	c #A88E6B",
"(.	c #A98F6C",
"_.	c #A88D6A",
":.	c #A78E69",
"<.	c #A78D6A",
"[.	c #A78D69",
"}.	c #A88E6A",
"|.	c #A88D69",
"1.	c #A68C68",
"2.	c #A78B68",
"3.	c #A68B68",
"4.	c #A78C68",
"5.	c #A78B69",
"6.	c #A58A66",
"7.	c #A58B66",
"8.	c #A58A67",
"9.	c #A58B67",
"0.	c #A38965",
"a.	c #A48865",
"b.	c #A48965",
"c.	c #A38865",
"  . . + + . @ #     . @ . .     . . $ + % & $ # ",
"* = * - = - - = * - = = - = = - = - * = = = - = ",
"; > , ' , ) ' , , ' ' ' ) ! ; ' ; ' ; ' ; ~ ) ) ",
"{ ] ] ^ ] ] ^ ] / ( ^ ] ^ ^ _ ] ^ ] / / : : : ] ",
"< [ < < [ [ < < < [ [ [ < [ [ [ } [ [ < < < [ < ",
"| 1 1 1 1 2 2 2 1 2 3 1 2 1 2 1 2 1 4 2 | 2 5 2 ",
"6 7 7 8 6 6 6 8 8 6 7 7 9 6 6 8 6 0 a 6 b 6 6 6 ",
"0 c c d e c c 0 f d g f f c g g c c d f c c c d ",
"h i i j k i h l j j j j i j h h j j j j j j j j ",
"m n m o p q r q o r r s s t t r r o r q t r q o ",
"u u v u w u w u x u u s s y u u w u u w u z u w ",
"A B C C C B B B B C A s s D E B C C B C D B F C ",
"G H I G I H H s s s J s s I s s s J H I I H I J ",
"K K L K M N L K s s s s s s s s L L L K L L K K ",
"O P O O P P P P Q s s s s s s P R P S O Q O O O ",
"T U V U W T W X X V s s s s W X U X W W X W W X ",
"Y Z ` `  .Z ..+.Z ` Z s s  .Z ` ` Z ` Z  . .Z  .",
"@.@.@.@.#.@.#.$.@.@.@.@.%.@.%.&.*.*.&.@.@.@.#.@.",
"=.=.-.=.=.=.-.;.-.=.-.>.-.-.,.=.>.,.,.>.-.-.=.=.",
"'.).).).).).).).).).).!.~.).'.~.~.!.'.).'.).'.~.",
"{.].^.{.^./.{.^.(.^.{.^.^.{.^.^.(.(.{.{.{.^.{.{.",
"_._.:.<.[._._.}.|._._.:.<._._.|.[._.:.|.|.<.[.<.",
"1.1.2.2.3.2.1.4.5.3.2.4.1.3.1.1.1.1.1.3.3.1.1.3.",
"6.7.8.6.9.6.7.8.8.6.8.9.7.8.6.7.8.8.9.6.7.8.6.8.",
"0.a.a.b.0.0.b.b.b.b.0.0.0.a.0.b.b.a.b.c.c.b.b.0."};
