/* XPM */
static char * shade_toggled_inactive_xpm[] = {
"24 25 128 2",
"  	c #C3AB8A",
". 	c #C3AB89",
"+ 	c #C3AA8A",
"@ 	c #C2A988",
"# 	c #C1A989",
"$ 	c #C2AA89",
"% 	c #C1AA88",
"& 	c #C1A988",
"* 	c #C2A989",
"= 	c #C2AA88",
"- 	c #C0A887",
"; 	c #C0A886",
"> 	c #C1A887",
", 	c #C1A886",
"' 	c #BFA785",
") 	c #C0A785",
"! 	c #BFA685",
"~ 	c #C0A685",
"{ 	c #BFA786",
"] 	c #BDA684",
"^ 	c #BDA584",
"/ 	c #BDA583",
"( 	c #BEA584",
"_ 	c #BEA684",
": 	c #BEA683",
"< 	c #BEA583",
"[ 	c #BDA382",
"} 	c #BCA482",
"| 	c #BDA482",
"1 	c #BCA382",
"2 	c #BCA281",
"3 	c #BBA281",
"4 	c #BBA381",
"5 	c #BCA381",
"6 	c #BAA27F",
"7 	c #BBA17F",
"8 	c #BAA17F",
"9 	c #BAA180",
"0 	c #BAA280",
"a 	c #BBA27F",
"b 	c #B89F7D",
"c 	c #B8A07E",
"d 	c #B9A07E",
"e 	c #B9A07D",
"f 	c #B99F7E",
"g 	c #B8A07D",
"h 	c #B89F7E",
"i 	c #B79E7C",
"j 	c #B89E7C",
"k 	c #B89F7C",
"l 	c #B79F7D",
"m 	c #7D6B53",
"n 	c #B89E7D",
"o 	c #B79F7C",
"p 	c #B69C7B",
"q 	c #B69D7A",
"r 	c #B69D7B",
"s 	c #B79D7A",
"t 	c #B69C7A",
"u 	c #B79D7B",
"v 	c #B59C79",
"w 	c #B59B79",
"x 	c #B49B79",
"y 	c #B49C79",
"z 	c #B59B7A",
"A 	c #B39A78",
"B 	c #B49A77",
"C 	c #B39A77",
"D 	c #B49A78",
"E 	c #B39B78",
"F 	c #B39976",
"G 	c #B29976",
"H 	c #B39876",
"I 	c #B29876",
"J 	c #B19875",
"K 	c #B19775",
"L 	c #B19774",
"M 	c #B09775",
"N 	c #B09774",
"O 	c #B19874",
"P 	c #B09673",
"Q 	c #AF9673",
"R 	c #AF9573",
"S 	c #B09573",
"T 	c #B09672",
"U 	c #AE9472",
"V 	c #AF9472",
"W 	c #AE9471",
"X 	c #AE9571",
"Y 	c #AE9572",
"Z 	c #AC9370",
"` 	c #AD9370",
" .	c #AD9270",
"..	c #AB916E",
"+.	c #AC926E",
"@.	c #AC916E",
"#.	c #AB926E",
"$.	c #AB916F",
"%.	c #AC926F",
"&.	c #AA906C",
"*.	c #AA906D",
"=.	c #AB906D",
"-.	c #AB906C",
";.	c #A98E6B",
">.	c #A88F6C",
",.	c #A88E6B",
"'.	c #A98F6B",
").	c #A98E6C",
"!.	c #A88F6B",
"~.	c #A98F6C",
"{.	c #A78D69",
"].	c #A88D69",
"^.	c #A88D6A",
"/.	c #A78E6A",
"(.	c #A88E69",
"_.	c #A88E6A",
":.	c #A78D6A",
"<.	c #A68C68",
"[.	c #A78C68",
"}.	c #A78C69",
"|.	c #A68B68",
"1.	c #A58A66",
"2.	c #A58A67",
"3.	c #A48A66",
"4.	c #A58B67",
"5.	c #A48B66",
"6.	c #A58B66",
"7.	c #F0CE9F",
"                  .     +               .   + . ",
"@ # # $ @ % & % @ % * * % * = = = = # & % = = * ",
"- - ; - - - - ; - > - - ; - - - , ; - ; - ; > , ",
"' ' ' ' ' ) ! ! ~ ' ! ! ! ! ' ! ' ! ! ! ' { ' ' ",
"] ^ / ^ ( ( ( ( ] _ : ( < ] ^ / / ( ^ : ^ ( / _ ",
"[ } | } } } } | 1 } | | | | } } 1 } } } | | } } ",
"2 3 4 4 2 4 4 5 2 5 5 5 5 2 5 5 3 5 4 4 5 2 4 4 ",
"6 7 8 9 0 8 8 8 8 8 6 0 9 a 6 8 8 9 8 8 8 9 8 8 ",
"b c d d d e b d e d c c f e f c d d d d f g h d ",
"i j i k i k i i j i l m m i i i j j j n b o o o ",
"p q r r p r p r r s t m m r r r q r r r s u u q ",
"v w v x w x v w y v z m m w v y y v z x v v w y ",
"A B A C C A C m m m D m m D m m m D D C D D D E ",
"F G H G G G G G m m m m m m m m G G I I I G G I ",
"J K L M N K K K K m m m m m m J N K L J O J L K ",
"P Q R Q S Q R P P P m m m m T Q Q S Q S R P Q Q ",
"U V W U U X U X W V U m m U U X W U X Y W W W Y ",
"Z ` ` `  .` `  .`  .` ` ` ` ` ` ` ` Z ` `  .` ` ",
"......+.....@...#.@.$.@.@.@.$.%.+.%.@.%.+...%.+.",
"&.*.&.&.*.=.*.*.=.&.*.&.&.&.&.&.*.=.-.*.*.-.*.*.",
";.;.;.>.;.;.,.'.;.).;.!.).'.;.;.).~.'.'.;.!.'.;.",
"{.].^.].].].{./.(.(.^._.^.].^.^.^.^.:.:.^.^.:.^.",
"<.<.<.[.}.|.|.[.|.|.<.|.<.|.<.<.|.[.|.<.|.<.<.|.",
"1.2.1.1.2.1.2.3.4.1.5.1.6.2.2.1.2.1.1.1.2.4.4.2.",
"7.7.7.7.7.7.7.7.7.7.7.7.7.7.7.7.7.7.7.7.7.7.7.7."};
