/* XPM */
static char * stick_toggled_inactive_xpm[] = {
"24 26 134 2",
"  	c #C3AA89",
". 	c #C3A988",
"+ 	c #C4AA88",
"@ 	c #C3AA88",
"# 	c #C3A989",
"$ 	c #C4A988",
"% 	c #C4A989",
"& 	c #C2A887",
"* 	c #C2A886",
"= 	c #C3A887",
"- 	c #C2A987",
"; 	c #C1A786",
"> 	c #C1A686",
", 	c #C0A786",
"' 	c #C1A785",
") 	c #C0A686",
"! 	c #C0A684",
"~ 	c #C0A584",
"{ 	c #BFA584",
"] 	c #C0A585",
"^ 	c #BFA684",
"/ 	c #C0A685",
"( 	c #BFA685",
"_ 	c #BEA583",
": 	c #BFA482",
"< 	c #BEA483",
"[ 	c #BFA483",
"} 	c #BEA482",
"| 	c #BFA583",
"1 	c #BDA381",
"2 	c #BDA382",
"3 	c #BEA382",
"4 	c #BEA381",
"5 	c #BCA280",
"6 	c #BCA180",
"7 	c #BBA180",
"8 	c #BBA27F",
"9 	c #BCA27F",
"0 	c #BAA17E",
"a 	c #BAA17F",
"b 	c #BBA07E",
"c 	c #BAA07F",
"d 	c #BBA17F",
"e 	c #BBA07F",
"f 	c #BBA17E",
"g 	c #BAA07E",
"h 	c #B99F7D",
"i 	c #BA9F7D",
"j 	c #B99F7E",
"k 	c #BAA07D",
"l 	c #B89D7C",
"m 	c #B89E7C",
"n 	c #B99E7C",
"o 	c #B89E7B",
"p 	c #7D6B53",
"q 	c #B79D7A",
"r 	c #B79C7A",
"s 	c #B79D7B",
"t 	c #B79C7B",
"u 	c #B69D7B",
"v 	c #B69C79",
"w 	c #B69B79",
"x 	c #B69B78",
"y 	c #B59B79",
"z 	c #B59B78",
"A 	c #B49A78",
"B 	c #B59A77",
"C 	c #B59A78",
"D 	c #B49977",
"E 	c #B49A77",
"F 	c #B39976",
"G 	c #B39876",
"H 	c #B49976",
"I 	c #B39877",
"J 	c #B29875",
"K 	c #B29775",
"L 	c #B29774",
"M 	c #B29874",
"N 	c #B09673",
"O 	c #B19673",
"P 	c #B19773",
"Q 	c #B09674",
"R 	c #B19674",
"S 	c #B09774",
"T 	c #B09773",
"U 	c #AF9571",
"V 	c #B09572",
"W 	c #AF9572",
"X 	c #B09472",
"Y 	c #AF9472",
"Z 	c #AE9471",
"` 	c #AF9471",
" .	c #AE9371",
"..	c #AF9370",
"+.	c #AE9470",
"@.	c #AE9370",
"#.	c #AD9270",
"$.	c #AD926F",
"%.	c #AD936F",
"&.	c #AD9370",
"*.	c #AB916E",
"=.	c #AC916E",
"-.	c #AC916D",
";.	c #AB916D",
">.	c #AB8F6C",
",.	c #AA906C",
"'.	c #AB906C",
").	c #AA8F6C",
"!.	c #AB906D",
"~.	c #AA906D",
"{.	c #AB8F6D",
"].	c #A98F6B",
"^.	c #A98E6B",
"/.	c #AA8E6B",
"(.	c #A98F6A",
"_.	c #AA8F6B",
":.	c #A88E69",
"<.	c #A88D69",
"[.	c #A88D6A",
"}.	c #A88E6A",
"|.	c #A98E6A",
"1.	c #A78C69",
"2.	c #A68C68",
"3.	c #A78C68",
"4.	c #A78B69",
"5.	c #A68B68",
"6.	c #A58B67",
"7.	c #A68A67",
"8.	c #A68B67",
"9.	c #A58A67",
"0.	c #A68A66",
"a.	c #A68B66",
"b.	c #A58B66",
"c.	c #F0CE9F",
"  .   . + @ # @ $   +   . + . @ + % % @ # @ @ @ ",
"& & & & & & & & * & = & & - & & & & & & & - & & ",
"; > , ' > ; ; ; ' ; ; , ' ; , ; ; ) ; ' ' ' ' ; ",
"! ~ { ] ! ^ ! / ^ { ~ ~ ^ ^ / ! ( ~ { ~ ~ ! ^ / ",
"_ _ : < _ < [ < < } < _ | : [ < < < } } [ < < | ",
"1 1 2 3 1 1 3 4 1 1 1 2 1 2 2 2 1 3 1 1 1 2 1 1 ",
"5 5 6 6 5 5 7 6 5 5 6 8 5 5 5 5 5 6 5 5 9 6 6 5 ",
"0 a b a c b b d e b b b e d e b d a f g e e g g ",
"h i i i i h i i j i h h h k i g h h i h h h h h ",
"l m n m l m l m o n m p p m m n m m m n m o n m ",
"q r q q q q s r t p p p p p p q u r q t q r q q ",
"v w w x v y w w w p p p p p p y z w y w v w v w ",
"A B A C A A A C p p p p p p p p A A D A E E E B ",
"F G G F F G F F p p p p p p p p G F F G H F F I ",
"J K L M L K L M K p p p p p p J K J J L J K L J ",
"N N O O P O N Q P p p p p p p R R R S Q R T O S ",
"U V W V W W X W V W W p p V W W V X V V W V W Y ",
"Z Z Z `  . ...Z Z +.+. .@.Z +. . . .Z Z ..@.@.` ",
"#.$.$.%.$.$.%.$.#.&.$.%.$.%.$.$.$.$.$.#.$.$.$.%.",
"*.=.=.=.-.=.-.;.-.=.=.*.=.=.;.=.=.*.=.=.*.-.=.=.",
">.,.'.).!.!.'.,.).~.{.!.{.'.'.,.,.'.,.'.'.,.~.'.",
"].^./.^.^.^.^./.].^.^.].^.].^.^.(._.^._./.].].^.",
":.<.:.[.[.[.}.<.:.<.[.<.[.:.[.<.[.[.[.|.[.[.[.:.",
"1.2.3.3.3.3.3.3.3.3.4.3.4.1.3.3.5.3.3.1.3.3.3.2.",
"6.7.8.8.7.8.7.8.8.8.9.9.9.8.9.0.8.8.6.8.8.a.7.b.",
"c.c.c.c.c.c.c.c.c.c.c.c.c.c.c.c.c.c.c.c.c.c.c.c."};
