/* XPM */
static char * stick_pressed_xpm[] = {
"24 25 128 2",
"  	c #C3AB8A",
". 	c #C4AB8A",
"+ 	c #C4AC8A",
"@ 	c #C4AB8B",
"# 	c #C3AB8B",
"$ 	c #C3AC8A",
"% 	c #C4AC8B",
"& 	c #C2AA89",
"* 	c #C2AA88",
"= 	c #C2A988",
"- 	c #C2A989",
"; 	c #C1A887",
"> 	c #C0A887",
", 	c #C1A987",
"' 	c #C1A888",
") 	c #C0A987",
"! 	c #C1A988",
"~ 	c #C0A785",
"{ 	c #BFA785",
"] 	c #C0A786",
"^ 	c #BFA786",
"/ 	c #BEA684",
"( 	c #BEA584",
"_ 	c #BFA584",
": 	c #BDA483",
"< 	c #BDA482",
"[ 	c #BCA482",
"} 	c #BCA483",
"| 	c #BDA583",
"1 	c #BDA582",
"2 	c #BBA381",
"3 	c #BBA281",
"4 	c #BCA381",
"5 	c #BCA281",
"6 	c #BAA17F",
"7 	c #BBA17F",
"8 	c #BAA27F",
"9 	c #BAA180",
"0 	c #BAA280",
"a 	c #B89F7E",
"b 	c #B9A07E",
"c 	c #B8A07E",
"d 	c #B99F7D",
"e 	c #B9A07D",
"f 	c #B99F7E",
"g 	c #B79E7C",
"h 	c #B89F7C",
"i 	c #B89E7C",
"j 	c #B79E7D",
"k 	c #B79F7C",
"l 	c #7D6B53",
"m 	c #B89E7D",
"n 	c #B79F7D",
"o 	c #B69D7A",
"p 	c #B69D7B",
"q 	c #B69C7A",
"r 	c #B69C7B",
"s 	c #B79D7A",
"t 	c #B59C7A",
"u 	c #B59B79",
"v 	c #B59C79",
"w 	c #B59B7A",
"x 	c #B49C79",
"y 	c #B49B79",
"z 	c #B49A77",
"A 	c #B49A78",
"B 	c #B39A78",
"C 	c #B39B77",
"D 	c #B39A77",
"E 	c #B39976",
"F 	c #B29876",
"G 	c #B29976",
"H 	c #B39876",
"I 	c #B19775",
"J 	c #B19774",
"K 	c #B19874",
"L 	c #B09875",
"M 	c #B09673",
"N 	c #AF9573",
"O 	c #AF9673",
"P 	c #B09573",
"Q 	c #B09672",
"R 	c #AE9471",
"S 	c #AF9471",
"T 	c #AF9572",
"U 	c #AE9571",
"V 	c #AE9472",
"W 	c #AE9572",
"X 	c #AD9370",
"Y 	c #AD9270",
"Z 	c #AD936F",
"` 	c #AD926F",
" .	c #AC9270",
"..	c #AC926E",
"+.	c #AB926E",
"@.	c #AC916F",
"#.	c #AC916E",
"$.	c #AB916E",
"%.	c #AC926F",
"&.	c #AB916F",
"*.	c #AA906C",
"=.	c #AB906C",
"-.	c #AB906D",
";.	c #AB8F6D",
">.	c #AA906D",
",.	c #A98F6B",
"'.	c #AA8F6C",
").	c #A98F6C",
"!.	c #AA8E6B",
"~.	c #A98E6B",
"{.	c #AA8F6B",
"].	c #A88E6A",
"^.	c #A88D6A",
"/.	c #A78C68",
"(.	c #A68C68",
"_.	c #A68C69",
":.	c #A78D68",
"<.	c #A68D69",
"[.	c #A78C69",
"}.	c #A58B67",
"|.	c #A58A67",
"1.	c #A58B66",
"2.	c #A68B67",
"3.	c #A68A67",
"4.	c #A48965",
"5.	c #A48966",
"6.	c #A48A65",
"7.	c #A38965",
"  . . +   @ +       # @ .   $ + + $ .   %   . # ",
"& * = * & & = * * - & & & * & & * * & & & * & * ",
"; > > ; > , , ; , , ; ; ' ; > ; ; ; > ; ) ! , , ",
"~ { ] { ^ ~ ] ^ ^ ^ { ~ { ^ ] ^ ^ ^ ^ ] ~ ^ ] ~ ",
"/ ( ( / / / ( ( ( ( / / / / / ( ( ( / / / _ / ( ",
": : : < : : [ } : : < } : | : [ : : : < 1 : : : ",
"2 2 2 2 3 3 4 2 2 5 4 2 2 3 3 3 2 2 2 5 4 4 4 2 ",
"6 7 6 6 6 6 6 6 8 6 9 7 6 9 6 0 9 9 7 6 6 6 0 9 ",
"a b b b c b d b c c b c c e f b b d f a c b e b ",
"g h i g g j g g i h k l l k k g m i k j g i j n ",
"o p p q p o p p r l l l l l l p o p s o o r p o ",
"t u u v w x u u y l l v u l l u u u x w v y u w ",
"z A B A B z C z l l B B B D l l z D B z z B B z ",
"E F G H F E G G l l G E H F l l F F F F G G F E ",
"I J J J J I I J I l l K J l l J I I L I J J J J ",
"M M N O O M O O P l l l l l l M O N M O O Q M O ",
"R R R S R T R U R V V l l V S R U R R R R W R T ",
"X X X X Y Z X X Y `  .Y X X Z X X ` Y X Z X X X ",
"..+...+.@.+.#...@...#.$.....%.#.+.$.+.#.%.#.&...",
"*.*.=.*.=.-.*.;.>.>.*.*.>.>.>.>.>.-.*.>.>.-.*.>.",
",.'.).!.).'.).,.).).,.,.).~.,.,.).,.'.,.,.,.{.,.",
"].^.].].^.].].].^.].^.^.].].^.^.].^.].].^.^.].].",
"/.(.(._.:.<.(._././._.[.(.[././././././.(.(._./.",
"}.|.|.}.|.}.}.1.|.|.}.}.1.}.|.2.3.}.}.}.2.1.|.|.",
"4.5.6.5.5.6.5.5.5.4.4.5.5.4.4.4.4.5.4.4.7.5.4.5."};
