/* XPM */
static char * stick_toggled_prelight_xpm[] = {
"24 26 134 2",
"  	c #E5CEB0",
". 	c #E5CFAF",
"+ 	c #E4CEB0",
"@ 	c #E5CFB0",
"# 	c #E4CFB0",
"$ 	c #E5CEAF",
"% 	c #E4CDAE",
"& 	c #E4CDAD",
"* 	c #E3CDAE",
"= 	c #E3CCAD",
"- 	c #E4CCAD",
"; 	c #E3CCAE",
"> 	c #E3CBAA",
", 	c #E3CBAB",
"' 	c #E3CCAB",
") 	c #E4CBAB",
"! 	c #E3CCAA",
"~ 	c #E2C9A9",
"{ 	c #E2CAA8",
"] 	c #E2CAA9",
"^ 	c #E2C9A8",
"/ 	c #E3CAA9",
"( 	c #E3C9A8",
"_ 	c #E3CAA8",
": 	c #E3C9A9",
"< 	c #E1C9A5",
"[ 	c #E2C8A5",
"} 	c #E2C8A6",
"| 	c #E1C8A6",
"1 	c #E2C9A6",
"2 	c #E1C9A6",
"3 	c #E1C8A5",
"4 	c #E1C6A4",
"5 	c #E1C7A3",
"6 	c #E0C7A3",
"7 	c #E1C7A4",
"8 	c #E1C6A3",
"9 	c #E0C6A4",
"0 	c #E0C7A4",
"a 	c #E0C6A3",
"b 	c #E0C5A1",
"c 	c #E0C5A0",
"d 	c #E0C6A1",
"e 	c #DFC39F",
"f 	c #DFC49E",
"g 	c #DFC49F",
"h 	c #DFC39E",
"i 	c #E0C49F",
"j 	c #E0C49E",
"k 	c #DFC29C",
"l 	c #DFC39C",
"m 	c #DEC29B",
"n 	c #DEC29C",
"o 	c #DEC39C",
"p 	c #DFC29B",
"q 	c #DFC39B",
"r 	c #DEC199",
"s 	c #DDC199",
"t 	c #DDC099",
"u 	c #DDC09A",
"v 	c #DDC19A",
"w 	c #7D6B53",
"x 	c #DEC19A",
"y 	c #DEC099",
"z 	c #DEC09A",
"A 	c #DDBF97",
"B 	c #DDBF96",
"C 	c #DCBF97",
"D 	c #DDC097",
"E 	c #DCBE94",
"F 	c #DCBD94",
"G 	c #DCBD95",
"H 	c #DCBE95",
"I 	c #DBBC92",
"J 	c #DCBC92",
"K 	c #DBBD92",
"L 	c #DBBA8F",
"M 	c #DABB8F",
"N 	c #DABA8F",
"O 	c #DBBA90",
"P 	c #DBBB8F",
"Q 	c #DABB90",
"R 	c #DAB98D",
"S 	c #D9B98D",
"T 	c #D9B88A",
"U 	c #D9B78B",
"V 	c #D9B88B",
"W 	c #D9B78A",
"X 	c #D8B78A",
"Y 	c #D8B688",
"Z 	c #D9B688",
"` 	c #D9B687",
" .	c #D7B585",
"..	c #D8B585",
"+.	c #D7B586",
"@.	c #D7B486",
"#.	c #D8B486",
"$.	c #D8B586",
"%.	c #D8B485",
"&.	c #D7B485",
"*.	c #D7B383",
"=.	c #D6B383",
"-.	c #D7B283",
";.	c #D7B284",
">.	c #D5B180",
",.	c #D6B180",
"'.	c #D6B281",
").	c #D6B181",
"!.	c #D5B280",
"~.	c #D6B280",
"{.	c #D5B07E",
"].	c #D6B07E",
"^.	c #D5AF7E",
"/.	c #D5B07F",
"(.	c #D4AE7C",
"_.	c #D5AF7B",
":.	c #D4AE7B",
"<.	c #D5AE7C",
"[.	c #D4AF7B",
"}.	c #D5AF7C",
"|.	c #D4AD79",
"1.	c #D3AD79",
"2.	c #D4AD7A",
"3.	c #D3AB76",
"4.	c #D3AC77",
"5.	c #D2AC77",
"6.	c #D3AC76",
"7.	c #D2AB77",
"8.	c #D2AB76",
"9.	c #D3AB77",
"0.	c #D2AA74",
"a.	c #D2AA75",
"b.	c #D2A974",
"c.	c #978164",
"  . + @ #   # $     $     @ @ # $   +   # + @ + ",
"% % & & * = & & * & & & & - % ; - - & & & & & & ",
"> , , ' , ' , > , , ) ! , ' > , , , > > , ' > , ",
"~ { ] ^ / ~ ( ( ~ _ { ^ ^ ^ / { ^ : ( ^ ~ ~ ~ ] ",
"< [ } | | } | 1 | } | | | [ | 2 2 [ | } 2 [ 3 | ",
"4 5 6 5 7 5 8 5 8 5 6 6 5 6 9 0 5 5 9 5 8 7 6 a ",
"b b c c b b b c c c b d b d b b b b b c b c b b ",
"e f f f g f h e i g h f f f g j f h h f f f f f ",
"k k k l k m n n n n n n o o p n q k k o p n n o ",
"r s t r s u t v s s s w w v x y r z v t r s v y ",
"A A A A A A A B A w w w w w w C A C A A A A D A ",
"E F G H H G E G G w w w w w w F H H G F G F G F ",
"I I I J J I I J w w w w w w w w K I J I I K J I ",
"L M N O P P M P w w w w w w w w L M L P Q L N Q ",
"R S R R R S R R R w w w w w w R R S R R R R R R ",
"T U U V V T U W T w w w w w w T V X U U T U W U ",
"Y Z Y Y Y Y Y Z Y Z Y w w ` Y Y Y Y Y Y Y Y Y Y ",
" . ...+.+.+.@.#.$.%. .@.&.+.#.%.$.%.#.@.%.+.+.&.",
"*.*.=.*.-.*.*.*.*.*.=.=.=.*.*.;.*.*.*.*.*.*.*.*.",
">.,.'.'.).).,.,.!.).~.).).).,.>.!.~.~.).,.>.).'.",
"{.{.].{.{.{.{.^.{.{.{.{.{.{.{./.{.{.{.{.{.{.{.{.",
"(._.:.(.<.[.:.}.:.:._.(.:.<.}.:.}.}.(.[.(.<._.:.",
"|.|.|.1.1.1.|.|.|.|.1.1.1.|.|.|.1.|.2.1.2.1.|.|.",
"3.4.5.4.5.3.3.3.6.5.6.4.7.8.4.5.4.6.3.4.3.9.4.9.",
"0.a.0.0.0.0.b.0.0.b.0.a.b.0.0.0.b.0.a.0.0.a.0.0.",
"c.c.c.c.c.c.c.c.c.c.c.c.c.c.c.c.c.c.c.c.c.c.c.c."};
