/* XPM */
static char * stick_toggled_active_xpm[] = {
"24 26 117 2",
"  	c #C3AA89",
". 	c #C4AA89",
"+ 	c #C3AB89",
"@ 	c #C4AA8A",
"# 	c #C4AB89",
"$ 	c #C4AB8A",
"% 	c #C3AB8A",
"& 	c #C2A988",
"* 	c #C2A987",
"= 	c #C3A988",
"- 	c #C1A786",
"; 	c #C1A787",
"> 	c #C1A887",
", 	c #C1A886",
"' 	c #C0A886",
") 	c #BFA685",
"! 	c #C0A685",
"~ 	c #C0A785",
"{ 	c #BFA785",
"] 	c #BEA584",
"^ 	c #BFA583",
"/ 	c #BEA583",
"( 	c #BFA584",
"_ 	c #BDA482",
": 	c #BDA382",
"< 	c #BEA482",
"[ 	c #BDA483",
"} 	c #BCA281",
"| 	c #BCA280",
"1 	c #BCA380",
"2 	c #BBA380",
"3 	c #BCA381",
"4 	c #BBA180",
"5 	c #BAA17F",
"6 	c #BBA17F",
"7 	c #BAA27F",
"8 	c #B9A07E",
"9 	c #BAA07E",
"0 	c #B9A07D",
"a 	c #B99F7E",
"b 	c #B99F7D",
"c 	c #B99E7C",
"d 	c #B89F7D",
"e 	c #B89F7C",
"f 	c #B89E7C",
"g 	c #B99E7D",
"h 	c #1F1B15",
"i 	c #B89E7D",
"j 	c #B79D7B",
"k 	c #B79D7A",
"l 	c #B79E7B",
"m 	c #B69B79",
"n 	c #B69C79",
"o 	c #B59C79",
"p 	c #B69C7A",
"q 	c #B59C7A",
"r 	c #B69B7A",
"s 	c #B59A78",
"t 	c #B49A78",
"u 	c #B49B78",
"v 	c #B59B78",
"w 	c #B49977",
"x 	c #B39976",
"y 	c #B39977",
"z 	c #B39A76",
"A 	c #B49976",
"B 	c #B49A76",
"C 	c #B29875",
"D 	c #B29876",
"E 	c #B29775",
"F 	c #B29776",
"G 	c #B19674",
"H 	c #B09673",
"I 	c #B19673",
"J 	c #B19774",
"K 	c #B09674",
"L 	c #AF9573",
"M 	c #B09573",
"N 	c #AF9572",
"O 	c #B09572",
"P 	c #AF9672",
"Q 	c #B09672",
"R 	c #AE9471",
"S 	c #AF9371",
"T 	c #AF9471",
"U 	c #AE9371",
"V 	c #AD926F",
"W 	c #AD9270",
"X 	c #AD936F",
"Y 	c #AD9370",
"Z 	c #AC926E",
"` 	c #AC916E",
" .	c #AC926F",
"..	c #AC916F",
"+.	c #AD926E",
"@.	c #AB906D",
"#.	c #AA906D",
"$.	c #AB916D",
"%.	c #AB906C",
"&.	c #A98F6C",
"*.	c #A98F6B",
"=.	c #AA8F6B",
"-.	c #AA8F6C",
";.	c #A98D6A",
">.	c #A98E6A",
",.	c #A88E6A",
"'.	c #A88D6A",
").	c #A88C69",
"!.	c #A78D68",
"~.	c #A78D69",
"{.	c #A78C69",
"].	c #A78C68",
"^.	c #A88C68",
"/.	c #A68B67",
"(.	c #A68B68",
"_.	c #A58B67",
":.	c #978164",
"        .   +   + @ # .     $ @     % $   . #   ",
"& & * & & & & & * & & & & & & & & & = & = * * & ",
"- ; > > , ; > - , - , > > > ' > - - , ' , ; , , ",
") ! ! ! ~ ) ! ~ ! ! ~ ) ! { { ! ) ) ! ) ! ~ ! ~ ",
"] ] ] ^ / ] ] ] ] ] ( ^ ^ / ] / ^ ( / / / / ^ ] ",
"_ _ : _ : _ _ _ : : < _ : _ : _ : [ _ : _ : _ _ ",
"} | 1 | 2 } | 1 | | } 1 1 | } } 3 } 3 } 3 } } } ",
"4 5 5 5 6 6 4 7 6 6 4 6 6 5 5 6 6 6 5 6 6 6 5 4 ",
"8 9 9 0 8 8 0 a b 8 0 8 8 8 9 0 9 0 8 9 8 8 8 9 ",
"c d e f g d d f e e e h h f e f i d e f c e i c ",
"j k k j j j j j j h h h h h h l k j j k j j j k ",
"m n m n o o p q r h h h h h h p p o p n p n r q ",
"s s t u t v t t h h h h h h h h u t u u t t v t ",
"w x w y z y y A h h h h h h h h x x x y z B y A ",
"C C D E C C E F C h h h h h h C C D C F C C C C ",
"G G G H I J K H J h h h h h h J J K G I G I J J ",
"L M M N L L N H N N O h h N N N P L N Q N O N L ",
"R R R R R S T U T T T T T R R R R T R T T R R R ",
"V W X Y Y W W Y W Y X W V Y X V V Y Y W V V X X ",
"Z `  .Z Z ` ..` ..Z Z Z ` ..` ......+. ...Z ` Z ",
"@.#.$.@.@.@.@.@.$.@.$.%.%.$.@.@.$.@.#.@.@.@.@.@.",
"&.&.*.=.&.=.-.=.=.&.*.*.&.*.-.*.=.&.*.=.&.=.&.=.",
";.>.,.,.>.>.;.;.;.,.,.,.>.,.,.'.;.>.'.;.>.,.>.,.",
").!.~.{.].{.^.~.!.~.~.{.{.].{.~.].{.^.).].!.].~.",
"/.(._._././././././././././._./._./._./././././.",
":.:.:.:.:.:.:.:.:.:.:.:.:.:.:.:.:.:.:.:.:.:.:.:."};
