/* XPM */
static char * stick_inactive_xpm[] = {
"24 26 129 2",
"  	c #FCEAD2",
". 	c #FCEBD2",
"+ 	c #FCEBD3",
"@ 	c #FCEAD3",
"# 	c #FCE9CF",
"$ 	c #FCE8CF",
"% 	c #FCE8CE",
"& 	c #FBE9CE",
"* 	c #FCE9CE",
"= 	c #FBE8CE",
"- 	c #FBE9CF",
"; 	c #FCE7CB",
"> 	c #FBE7CB",
", 	c #FBE7CC",
"' 	c #FBE8CB",
") 	c #FCE7CC",
"! 	c #FBE5C7",
"~ 	c #FBE6C8",
"{ 	c #FCE5C8",
"] 	c #FCE5C7",
"^ 	c #FBE6C7",
"/ 	c #FBE5C8",
"( 	c #FCE6C8",
"_ 	c #FBE3C4",
": 	c #FBE4C4",
"< 	c #FCE4C4",
"[ 	c #FCE4C5",
"} 	c #FBE3C5",
"| 	c #FBE4C5",
"1 	c #FBE3C1",
"2 	c #FBE2C0",
"3 	c #FAE2C1",
"4 	c #FBE2C1",
"5 	c #FBE3C0",
"6 	c #FBE0BD",
"7 	c #FAE1BD",
"8 	c #FBE1BD",
"9 	c #FAE0BD",
"0 	c #FADFB9",
"a 	c #FBDFB9",
"b 	c #FBDFBA",
"c 	c #FADFBA",
"d 	c #FBE0BA",
"e 	c #FBDEB6",
"f 	c #FBDDB6",
"g 	c #FADEB6",
"h 	c #FADDB6",
"i 	c #FADCB2",
"j 	c #FADCB3",
"k 	c #FBDCB2",
"l 	c #7D6B53",
"m 	c #FADBB3",
"n 	c #FADBB2",
"o 	c #FADAAF",
"p 	c #FADBAF",
"q 	c #F9DBAF",
"r 	c #FAD8AC",
"s 	c #FAD9AB",
"t 	c #FAD8AB",
"u 	c #F9D9AC",
"v 	c #FAD9AC",
"w 	c #FAD7A8",
"x 	c #F9D7A7",
"y 	c #FAD7A7",
"z 	c #F9D7A8",
"A 	c #F9D8A8",
"B 	c #F9D6A4",
"C 	c #F9D5A4",
"D 	c #FAD6A4",
"E 	c #F9D6A5",
"F 	c #FAD5A5",
"G 	c #FAD5A4",
"H 	c #F9D5A5",
"I 	c #FAD6A5",
"J 	c #FAD4A1",
"K 	c #F9D4A1",
"L 	c #F9D4A0",
"M 	c #F9D29D",
"N 	c #F9D39D",
"O 	c #F9D29E",
"P 	c #F8D29D",
"Q 	c #F9D39E",
"R 	c #F8D09A",
"S 	c #F8D19A",
"T 	c #F8D099",
"U 	c #F9D19A",
"V 	c #F9D09A",
"W 	c #F9D099",
"X 	c #F9D199",
"Y 	c #F8D199",
"Z 	c #F8CF96",
"` 	c #F8CF97",
" .	c #F9D096",
"..	c #F9CF96",
"+.	c #F9CF97",
"@.	c #F8D096",
"#.	c #F8CE92",
"$.	c #F9CE93",
"%.	c #F8CE93",
"&.	c #F8CD93",
"*.	c #F8CD92",
"=.	c #F9CE92",
"-.	c #F9CD93",
";.	c #F8CC8F",
">.	c #F9CC8F",
",.	c #F8CC90",
"'.	c #F8CB8B",
").	c #F8CA8C",
"!.	c #F8CA8B",
"~.	c #F8CB8C",
"{.	c #F8C888",
"].	c #F8C988",
"^.	c #F7C888",
"/.	c #F7C988",
"(.	c #F8C784",
"_.	c #F8C885",
":.	c #F8C785",
"<.	c #F7C784",
"[.	c #F7C785",
"}.	c #F7C884",
"|.	c #F7C581",
"1.	c #F8C681",
"2.	c #F8C581",
"3.	c #F7C681",
"4.	c #F8C47E",
"5.	c #F7C47E",
"6.	c #F7C47D",
"7.	c #F8C47D",
"8.	c #F0CE9F",
"  .         . .   . +         @   +           . ",
"# $ $ # # % # $ # $ # & # * $ # % * & = $ - - # ",
"; > > > > ; ; ; , > ; ; ; > > ' ; ; ) ; > ) ; , ",
"! ~ { ! ] ] ^ / ! / / ( ! { { / ~ ~ / ^ ! / / { ",
"_ : : : : : : : < : : : : : < : : [ } : : : : | ",
"1 2 1 1 1 3 4 4 4 1 1 4 1 2 4 2 5 1 2 2 2 4 1 2 ",
"6 7 6 8 8 6 8 9 9 7 6 6 8 6 8 8 8 6 8 6 9 8 7 8 ",
"0 a b b b b c c 0 d 0 0 0 b b b a a a 0 a c b c ",
"e f g h f g e h f h g h h f f g e g f h f e f g ",
"i i j i k k i k i j i l l k i i m k n i i j i i ",
"o p o p o o p o o l l l l l l p o o p q p o p o ",
"r s r t u s v v u l l v v l l s r v v s s v s t ",
"w x w y z z w A l l w w z z l l z x w z w y z z ",
"B C D B B E D C l l F B C D l l G G C B H G C I ",
"J K J K K K K K K l l L L l l K K K L L L K K K ",
"M M N M N O M M M l l l l l l M M P M Q M O O M ",
"R S T U U V W X U V X l l U X U U Y V U X V V V ",
"Z `  ...Z ..Z ....Z ..Z Z +.@..... .....Z +.Z ..",
"#.$.%.%.&.*.$.=.*.&.*.-.#.%.%.-.=.=.-.%.%.$.-.*.",
";.>.;.,.;.;.;.;.>.;.;.;.;.>.;.;.;.;.>.;.;.;.;.>.",
"'.'.).'.).!.!.).!.).!.~.!.~.).).).!.!.!.!.).).'.",
"{.{.].{.].].].].].].].^.]./.].{.].].{./.].].].{.",
"(._.:.(.<.[.:.(.<.<.[.(.:.:.}.:.(.:.<.(.[.(.<.[.",
"|.1.2.1.3.2.3.1.3.1.1.3.1.|.|.2.3.|.2.1.1.3.2.3.",
"4.5.6.6.4.6.5.6.5.6.4.5.5.6.6.6.5.7.6.5.7.6.5.4.",
"8.8.8.8.8.8.8.8.8.8.8.8.8.8.8.8.8.8.8.8.8.8.8.8."};
