/* XPM */
static char * stick_active_xpm[] = {
"24 26 134 2",
"  	c #E5CFB0",
". 	c #E5CEB0",
"+ 	c #E5CEAF",
"@ 	c #E4CEB0",
"# 	c #E4CFB0",
"$ 	c #E4CEAF",
"% 	c #E4CDAE",
"& 	c #E4CDAD",
"* 	c #E3CCAD",
"= 	c #E4CCAD",
"- 	c #E3CDAD",
"; 	c #E4CCAE",
"> 	c #E3CBAB",
", 	c #E3CCAA",
"' 	c #E3CCAB",
") 	c #E4CCAB",
"! 	c #E4CBAB",
"~ 	c #E3CBAA",
"{ 	c #E2CAA8",
"] 	c #E3CAA8",
"^ 	c #E2CAA9",
"/ 	c #E2C9A9",
"( 	c #E2C9A8",
"_ 	c #E2C8A6",
": 	c #E1C8A5",
"< 	c #E1C8A6",
"[ 	c #E2C8A5",
"} 	c #E2C9A6",
"| 	c #E1C9A6",
"1 	c #E0C6A4",
"2 	c #E1C7A4",
"3 	c #E0C7A3",
"4 	c #E1C6A3",
"5 	c #E1C7A3",
"6 	c #E1C6A4",
"7 	c #E0C7A4",
"8 	c #E0C5A1",
"9 	c #E0C6A1",
"0 	c #DFC5A1",
"a 	c #E0C5A0",
"b 	c #DFC49E",
"c 	c #DFC39E",
"d 	c #DFC49F",
"e 	c #DFC39F",
"f 	c #E0C39F",
"g 	c #E0C39E",
"h 	c #E0C49F",
"i 	c #DEC29C",
"j 	c #DFC29C",
"k 	c #DEC39B",
"l 	c #DFC39C",
"m 	c #DDC199",
"n 	c #DEC19A",
"o 	c #DEC09A",
"p 	c #DDC19A",
"q 	c #DDC099",
"r 	c #DEC199",
"s 	c #1F1B15",
"t 	c #DDC09A",
"u 	c #DEC099",
"v 	c #DDBF96",
"w 	c #DCBF97",
"x 	c #DDBF97",
"y 	c #DDC097",
"z 	c #DCBE95",
"A 	c #DCBD95",
"B 	c #DCBE94",
"C 	c #DCBD94",
"D 	c #DDBD95",
"E 	c #DCBD92",
"F 	c #DCBC92",
"G 	c #DBBC92",
"H 	c #DBBD92",
"I 	c #DBBC91",
"J 	c #DABA90",
"K 	c #DABB8F",
"L 	c #DBBB8F",
"M 	c #DBBA8F",
"N 	c #DABB90",
"O 	c #DABA8F",
"P 	c #DBBB90",
"Q 	c #DBBA90",
"R 	c #D9B98D",
"S 	c #DAB98D",
"T 	c #D9B78B",
"U 	c #D9B78A",
"V 	c #D9B88B",
"W 	c #D9B88A",
"X 	c #D8B688",
"Y 	c #D9B688",
"Z 	c #D8B485",
"` 	c #D7B486",
" .	c #D7B586",
"..	c #D7B585",
"+.	c #D8B486",
"@.	c #D7B485",
"#.	c #D8B585",
"$.	c #D7B383",
"%.	c #D6B383",
"&.	c #D7B283",
"*.	c #D6B180",
"=.	c #D6B280",
"-.	c #D6B181",
";.	c #D6B281",
">.	c #D5B281",
",.	c #D5B181",
"'.	c #D5B07E",
").	c #D6B07E",
"!.	c #D5AF7E",
"~.	c #D5B07F",
"{.	c #D4AF7C",
"].	c #D5AF7C",
"^.	c #D4AE7C",
"/.	c #D4AF7B",
"(.	c #D5AE7C",
"_.	c #D5AF7B",
":.	c #D4AE7B",
"<.	c #D4AD7A",
"[.	c #D4AD79",
"}.	c #D3AD79",
"|.	c #D3AC79",
"1.	c #D3AD7A",
"2.	c #D3AB77",
"3.	c #D3AC77",
"4.	c #D3AB76",
"5.	c #D2AC77",
"6.	c #D2AB76",
"7.	c #D3AC76",
"8.	c #D2AB77",
"9.	c #D2AC76",
"0.	c #D2AA74",
"a.	c #D2AA75",
"b.	c #D2A974",
"c.	c #978164",
"  . + . @ @ @ .   . . @ . @ . + @ + . # @ @ . $ ",
"% & % * & = % & & - = & & & = & & % ; & & & * & ",
"> > > > > > > , > ' > > > ) ! ~ > ~ > > > > ~ ' ",
"{ ] ^ ^ { ] ^ ^ { { / ^ { / ( ( { ] { ] { ] { ^ ",
"_ _ : _ < [ _ _ _ _ : _ [ _ [ < < < : } < | } _ ",
"1 2 3 3 4 5 3 5 5 2 3 2 6 2 3 5 2 2 6 5 5 4 7 2 ",
"8 9 0 9 a 8 8 8 8 8 9 8 8 8 8 9 8 8 8 8 8 8 8 8 ",
"b c b b b d b b b b c e c f d g h d b d d d d b ",
"i j j i i i j i i i j j i j j j i k i l i i j j ",
"m m n o m p m m q m r s s t u q p r n r n r n o ",
"v v w w x x x x x s s s s s s x w v v x x x v y ",
"z A z A B C B B A s s B B s s C A B D C B B A C ",
"E F G H G I G G s s G G G G s s F F G G F G G G ",
"J K L K M K N N s s N M J O s s J K M M K P Q J ",
"R S S S S S S S S s s S S s s S S S S S S S R R ",
"T U V U U W U T W s s s s s s V W V V W W W T T ",
"X X Y X X X X X Y X X s s X X X X X X X X X X X ",
"Z Z `  . .` ` Z ..Z  .+...+.Z @.#.Z #.` @.Z @. .",
"$.$.$.%.$.$.%.$.%.%.$.%.$.$.$.%.$.$.&.$.&.%.$.%.",
"*.=.=.*.-.=.*.*.=.-.=.-.*.-.;.-.>.;.;.=.,.;.=.=.",
"'.'.'.).'.).'.'.'.'.'.!.'.'.'.'.!.'.'.'.~.'.'.'.",
"{.].].^.^.{.].^./.].(.(._.].:.^.]./.:.^./.:.(./.",
"<.[.[.}.[.}.[.}.[.[.}.|.}.[.[.}.}.[.1.}.}.[.[.}.",
"2.3.3.4.5.4.4.2.3.3.6.6.4.3.7.2.7.2.3.8.6.9.3.3.",
"0.0.a.0.0.0.0.a.0.0.0.0.0.0.0.0.b.0.0.0.0.0.b.0.",
"c.c.c.c.c.c.c.c.c.c.c.c.c.c.c.c.c.c.c.c.c.c.c.c."};
