/* XPM */
static char * title_2_active_xpm[] = {
"2 26 42 1",
" 	c #E6D0B1",
".	c #E5CFB1",
"+	c #E5CEAE",
"@	c #E5CDAE",
"#	c #E4CCAB",
"$	c #E3CAA9",
"%	c #E3CBA9",
"&	c #E2C9A6",
"*	c #E1C7A4",
"=	c #E1C7A3",
"-	c #E1C6A1",
";	c #E0C39F",
">	c #E0C39E",
",	c #DFC29C",
"'	c #DFC29B",
")	c #DDC199",
"!	c #DEC098",
"~	c #DDBF96",
"{	c #DCBE94",
"]	c #DCBD94",
"^	c #DBBC91",
"/	c #DBBA8F",
"(	c #DAB98C",
"_	c #D9B789",
":	c #D8B587",
"<	c #D8B586",
"[	c #D7B484",
"}	c #D7B483",
"|	c #D6B182",
"1	c #D6B281",
"2	c #D5B07E",
"3	c #D5B17E",
"4	c #D5AE7C",
"5	c #D4AF7C",
"6	c #D4AD79",
"7	c #D4AD7A",
"8	c #D3AC76",
"9	c #D3AB77",
"0	c #D2A974",
"a	c #D1AA74",
"b	c #D1A871",
"c	c #978164",
" .",
"+@",
"##",
"$%",
"&&",
"*=",
"--",
";>",
",'",
")!",
"~~",
"{]",
"^^",
"//",
"((",
"__",
":<",
"[}",
"|1",
"23",
"45",
"67",
"89",
"0a",
"bb",
"cc"};
