/* XPM */
static char * title_5_inactive_xpm[] = {
"2 26 41 1",
" 	c #FDEBD4",
".	c #FCEBD4",
"+	c #FDEAD0",
"@	c #FDE8CD",
"#	c #FCE8CC",
"$	c #FCE6C9",
"%	c #FCE6C8",
"&	c #FCE4C5",
"*	c #FCE3C1",
"=	c #FCE1BD",
"-	c #FCE0BD",
";	c #FBDFB9",
">	c #FCDFB9",
",	c #FBDDB6",
"'	c #FBDEB5",
")	c #FBDCB2",
"!	c #FBDBB2",
"~	c #FADAAE",
"{	c #FAD8AA",
"]	c #FAD6A7",
"^	c #FAD7A6",
"/	c #FAD5A2",
"(	c #F9D5A3",
"_	c #FAD49F",
":	c #F9D39F",
"<	c #FAD19B",
"[	c #FAD097",
"}	c #FACF97",
"|	c #F9CE94",
"1	c #F8CC90",
"2	c #F9CB8B",
"3	c #F9CA8C",
"4	c #F9C988",
"5	c #F8C988",
"6	c #F8C784",
"7	c #F8C581",
"8	c #F7C580",
"9	c #F7C47D",
"0	c #F8C37D",
"a	c #F7C279",
"b	c #F0CE9F",
" .",
"++",
"@#",
"$%",
"&&",
"**",
"=-",
";>",
",'",
")!",
"~~",
"{{",
"]^",
"/(",
"_:",
"<<",
"[}",
"||",
"11",
"23",
"45",
"66",
"78",
"90",
"aa",
"bb"};
