/* XPM */
static char * top_right_active_xpm[] = {
"8 26 92 2",
"  	c None",
". 	c #E6CFB0",
"+ 	c #E5CEAE",
"@ 	c #E5CEAF",
"# 	c #E5CDAE",
"$ 	c #E4CCAB",
"% 	c #E3CCAC",
"& 	c #E4CCAC",
"* 	c #E3CAA9",
"= 	c #E3CAA8",
"- 	c #E3CBA9",
"; 	c #E2C9A7",
"> 	c #E2C9A6",
", 	c #E3C8A6",
"' 	c #E2C8A6",
") 	c #E1C8A4",
"! 	c #E1C7A3",
"~ 	c #E2C7A3",
"{ 	c #E1C7A4",
"] 	c #E1C6A1",
"^ 	c #E0C6A1",
"/ 	c #E1C5A1",
"( 	c #E0C5A1",
"_ 	c #E0C5A0",
": 	c #DFC39E",
"< 	c #E0C49F",
"[ 	c #DFC49F",
"} 	c #E0C39E",
"| 	c #DFC49E",
"1 	c #E0C49E",
"2 	c #DEC29C",
"3 	c #DFC39C",
"4 	c #DFC29B",
"5 	c #DFC29C",
"6 	c #DEC29B",
"7 	c #DEC199",
"8 	c #DEC099",
"9 	c #DEC198",
"0 	c #DDC198",
"a 	c #DDBE96",
"b 	c #DDBF97",
"c 	c #DDBF96",
"d 	c #DCBE94",
"e 	c #DDBD94",
"f 	c #DCBD94",
"g 	c #DCBD93",
"h 	c #DBBC91",
"i 	c #DBBB91",
"j 	c #DCBB91",
"k 	c #DBBA8E",
"l 	c #DABA8E",
"m 	c #DABA8F",
"n 	c #DAB88B",
"o 	c #DAB88C",
"p 	c #DAB98B",
"q 	c #D9B88C",
"r 	c #DAB98C",
"s 	c #D8B789",
"t 	c #D9B689",
"u 	c #D9B789",
"v 	c #D8B587",
"w 	c #D8B586",
"x 	c #D7B586",
"y 	c #D7B384",
"z 	c #D7B483",
"A 	c #D8B384",
"B 	c #D8B484",
"C 	c #D7B281",
"D 	c #D6B281",
"E 	c #D6B181",
"F 	c #D7B181",
"G 	c #D5B07E",
"H 	c #D5B07F",
"I 	c #D5B17E",
"J 	c #D6B07E",
"K 	c #D5AE7C",
"L 	c #D5AF7C",
"M 	c #D3AD7A",
"N 	c #D4AD79",
"O 	c #D3AD79",
"P 	c #D3AC79",
"Q 	c #D3AB76",
"R 	c #D3AB77",
"S 	c #D2AB77",
"T 	c #D2AC77",
"U 	c #D2AC76",
"V 	c #D2A974",
"W 	c #D2AA74",
"X 	c #D1A872",
"Y 	c #D1A871",
"Z 	c #D1A971",
"` 	c #978164",
". . .           ",
"+ @ # + +       ",
"$ % & & & &     ",
"* = * * - = =   ",
"; > , ; > ' '   ",
") ! ~ { { ! { { ",
"] ^ / ( ] _ ( ( ",
": < [ } | | 1 1 ",
"2 3 4 5 4 5 6 4 ",
"7 8 8 7 9 0 8 8 ",
"a b a a c a c c ",
"d d e d e f f g ",
"h i h i j i i i ",
"k l l l m l k l ",
"n o o p q r n o ",
"s t s t u s t t ",
"v v w w w x w x ",
"y z A y B y y y ",
"C D E F D F D D ",
"G H H G H I H J ",
"K L L K L K L L ",
"M N O N N N P O ",
"Q R S T Q Q U Q ",
"V V W V W V W V ",
"X Y Y Y Y Y Z X ",
"` ` ` ` ` ` ` ` "};
