/* XPM */
static char * top_right_inactive_xpm[] = {
"8 26 100 2",
"  	c None",
". 	c #FDEBD4",
"+ 	c #FDECD4",
"@ 	c #FDE9D0",
"# 	c #FCE9D0",
"$ 	c #FCE8CC",
"% 	c #FDE7CC",
"& 	c #FCE7CC",
"* 	c #FDE8CD",
"= 	c #FCE8CD",
"- 	c #FCE6C8",
"; 	c #FCE6C9",
"> 	c #FDE6C9",
", 	c #FCE4C5",
"' 	c #FCE5C5",
") 	c #FCE4C4",
"! 	c #FCE2C2",
"~ 	c #FCE3C1",
"{ 	c #FBE3C1",
"] 	c #FCE2C1",
"^ 	c #FBE1BE",
"/ 	c #FCE0BD",
"( 	c #FCE1BD",
"_ 	c #FBE1BD",
": 	c #FBE0BA",
"< 	c #FBDFBA",
"[ 	c #FCDFBA",
"} 	c #FCE0BA",
"| 	c #FBDFB9",
"1 	c #FBDDB6",
"2 	c #FBDDB5",
"3 	c #FBDEB6",
"4 	c #FBDEB5",
"5 	c #FBDBB2",
"6 	c #FBDCB2",
"7 	c #FBDBB1",
"8 	c #FADAAE",
"9 	c #FBDAAE",
"0 	c #FBDAAF",
"a 	c #FBD8AA",
"b 	c #FAD9AA",
"c 	c #FAD8AA",
"d 	c #FBD9AA",
"e 	c #FAD9AB",
"f 	c #FAD8AB",
"g 	c #FAD7A7",
"h 	c #FBD7A7",
"i 	c #FAD6A6",
"j 	c #FAD6A7",
"k 	c #FBD6A7",
"l 	c #FAD5A3",
"m 	c #FAD4A3",
"n 	c #FAD5A2",
"o 	c #F9D39F",
"p 	c #FAD49F",
"q 	c #FAD39F",
"r 	c #F9D19B",
"s 	c #FAD19B",
"t 	c #F9D29B",
"u 	c #F9D098",
"v 	c #F9D198",
"w 	c #FAD099",
"x 	c #F9D199",
"y 	c #FAD098",
"z 	c #F9CF94",
"A 	c #F9CE94",
"B 	c #F9CF95",
"C 	c #F8CD91",
"D 	c #F9CD91",
"E 	c #F9CD90",
"F 	c #F9CC91",
"G 	c #F9CC90",
"H 	c #F8CB8D",
"I 	c #F9CB8D",
"J 	c #F8CB8C",
"K 	c #F9CC8C",
"L 	c #F8CA89",
"M 	c #F9CA89",
"N 	c #F8C989",
"O 	c #F9C989",
"P 	c #F8C885",
"Q 	c #F8C786",
"R 	c #F9C785",
"S 	c #F8C785",
"T 	c #F8C681",
"U 	c #F7C682",
"V 	c #F8C682",
"W 	c #F7C681",
"X 	c #F7C47D",
"Y 	c #F8C57D",
"Z 	c #F8C47D",
"` 	c #F8C47E",
" .	c #F8C57E",
"..	c #F8C279",
"+.	c #F8C37A",
"@.	c #F7C37A",
"#.	c #F7C279",
"$.	c #F7C27A",
"%.	c #F7C379",
"&.	c #F0CE9F",
". . +           ",
"@ @ @ # @       ",
"$ % & * = =     ",
"- - ; ; ; > >   ",
", , ' , , ' )   ",
"! ~ { ~ { ] ] ~ ",
"^ / ( ( _ / ^ ^ ",
": < [ [ } | | | ",
"1 2 1 1 3 4 1 3 ",
"5 6 5 6 7 6 6 6 ",
"8 9 9 9 8 9 0 8 ",
"a b c d c c e f ",
"g h i i i j i k ",
"l l m l n l l n ",
"o p q p q q q q ",
"r s t s s t r r ",
"u v u v w x y u ",
"z A z z B A A A ",
"C D D E C F E G ",
"H H I H J K I I ",
"L L M M M N O L ",
"P P P Q R S S P ",
"T U T V T W T T ",
"X Y Z ` X Y  .` ",
"..+.@.#.+.$.@.%.",
"&.&.&.&.&.&.&.&."};
