/* XPM */
static char * top_left_active_xpm[] = {
"8 26 92 2",
"  	c None",
". 	c #E6CFB0",
"+ 	c #E5CEAE",
"@ 	c #E5CDAE",
"# 	c #E5CEAF",
"$ 	c #E4CCAC",
"% 	c #E3CCAC",
"& 	c #E4CCAB",
"* 	c #E3CAA8",
"= 	c #E3CBA9",
"- 	c #E3CAA9",
"; 	c #E2C8A6",
"> 	c #E2C9A6",
", 	c #E2C9A7",
"' 	c #E3C8A6",
") 	c #E1C7A4",
"! 	c #E1C7A3",
"~ 	c #E2C7A3",
"{ 	c #E1C8A4",
"] 	c #E0C5A1",
"^ 	c #E0C5A0",
"/ 	c #E1C6A1",
"( 	c #E1C5A1",
"_ 	c #E0C6A1",
": 	c #E0C49E",
"< 	c #DFC49E",
"[ 	c #E0C39E",
"} 	c #DFC49F",
"| 	c #E0C49F",
"1 	c #DFC39E",
"2 	c #DFC29B",
"3 	c #DEC29B",
"4 	c #DFC29C",
"5 	c #DFC39C",
"6 	c #DEC29C",
"7 	c #DEC099",
"8 	c #DDC198",
"9 	c #DEC198",
"0 	c #DEC199",
"a 	c #DDBF96",
"b 	c #DDBE96",
"c 	c #DDBF97",
"d 	c #DCBD93",
"e 	c #DCBD94",
"f 	c #DDBD94",
"g 	c #DCBE94",
"h 	c #DBBB91",
"i 	c #DCBB91",
"j 	c #DBBC91",
"k 	c #DABA8E",
"l 	c #DBBA8E",
"m 	c #DABA8F",
"n 	c #DAB88C",
"o 	c #DAB88B",
"p 	c #DAB98C",
"q 	c #D9B88C",
"r 	c #DAB98B",
"s 	c #D9B689",
"t 	c #D8B789",
"u 	c #D9B789",
"v 	c #D7B586",
"w 	c #D8B586",
"x 	c #D8B587",
"y 	c #D7B384",
"z 	c #D8B484",
"A 	c #D8B384",
"B 	c #D7B483",
"C 	c #D6B281",
"D 	c #D7B181",
"E 	c #D6B181",
"F 	c #D7B281",
"G 	c #D6B07E",
"H 	c #D5B07F",
"I 	c #D5B17E",
"J 	c #D5B07E",
"K 	c #D5AF7C",
"L 	c #D5AE7C",
"M 	c #D3AD79",
"N 	c #D3AC79",
"O 	c #D4AD79",
"P 	c #D3AD7A",
"Q 	c #D3AB76",
"R 	c #D2AC76",
"S 	c #D2AC77",
"T 	c #D2AB77",
"U 	c #D3AB77",
"V 	c #D2A974",
"W 	c #D2AA74",
"X 	c #D1A872",
"Y 	c #D1A971",
"Z 	c #D1A871",
"` 	c #978164",
"          . . . ",
"      + + @ # + ",
"    $ $ $ $ % & ",
"  * * = - - * - ",
"  ; ; > , ' > , ",
") ) ! ) ) ~ ! { ",
"] ] ^ / ] ( _ / ",
": : < < [ } | 1 ",
"2 3 4 2 4 2 5 6 ",
"7 7 8 9 0 7 7 0 ",
"a a b a b b c b ",
"d e e f g f g g ",
"h h h i h j h j ",
"k l k m k k k l ",
"n o p q r n n o ",
"s s t u s t s t ",
"v w v w w w x x ",
"y y y z y A B y ",
"C C D C D E C F ",
"G H I H J H H J ",
"K K L K L K K L ",
"M N O O O M O P ",
"Q R Q Q S T U Q ",
"V W V W V W V V ",
"X Y Z Z Z Z Z X ",
"` ` ` ` ` ` ` ` "};
