/* XPM */
static char * top_left_inactive_xpm[] = {
"8 26 100 2",
"  	c None",
". 	c #FDECD4",
"+ 	c #FDEBD4",
"@ 	c #FDE9D0",
"# 	c #FCE9D0",
"$ 	c #FCE8CD",
"% 	c #FDE8CD",
"& 	c #FCE7CC",
"* 	c #FDE7CC",
"= 	c #FCE8CC",
"- 	c #FDE6C9",
"; 	c #FCE6C9",
"> 	c #FCE6C8",
", 	c #FCE4C4",
"' 	c #FCE5C5",
") 	c #FCE4C5",
"! 	c #FCE3C1",
"~ 	c #FCE2C1",
"{ 	c #FBE3C1",
"] 	c #FCE2C2",
"^ 	c #FBE1BE",
"/ 	c #FCE0BD",
"( 	c #FBE1BD",
"_ 	c #FCE1BD",
": 	c #FBDFB9",
"< 	c #FCE0BA",
"[ 	c #FCDFBA",
"} 	c #FBDFBA",
"| 	c #FBE0BA",
"1 	c #FBDEB6",
"2 	c #FBDDB6",
"3 	c #FBDEB5",
"4 	c #FBDDB5",
"5 	c #FBDCB2",
"6 	c #FBDBB1",
"7 	c #FBDBB2",
"8 	c #FADAAE",
"9 	c #FBDAAF",
"0 	c #FBDAAE",
"a 	c #FAD8AB",
"b 	c #FAD9AB",
"c 	c #FAD8AA",
"d 	c #FBD9AA",
"e 	c #FAD9AA",
"f 	c #FBD8AA",
"g 	c #FBD6A7",
"h 	c #FAD6A6",
"i 	c #FAD6A7",
"j 	c #FBD7A7",
"k 	c #FAD7A7",
"l 	c #FAD5A2",
"m 	c #FAD5A3",
"n 	c #FAD4A3",
"o 	c #FAD39F",
"p 	c #FAD49F",
"q 	c #F9D39F",
"r 	c #F9D19B",
"s 	c #F9D29B",
"t 	c #FAD19B",
"u 	c #F9D098",
"v 	c #FAD098",
"w 	c #F9D199",
"x 	c #FAD099",
"y 	c #F9D198",
"z 	c #F9CE94",
"A 	c #F9CF95",
"B 	c #F9CF94",
"C 	c #F9CC90",
"D 	c #F9CD90",
"E 	c #F9CC91",
"F 	c #F8CD91",
"G 	c #F9CD91",
"H 	c #F9CB8D",
"I 	c #F9CC8C",
"J 	c #F8CB8C",
"K 	c #F8CB8D",
"L 	c #F8CA89",
"M 	c #F9C989",
"N 	c #F8C989",
"O 	c #F9CA89",
"P 	c #F8C885",
"Q 	c #F8C785",
"R 	c #F9C785",
"S 	c #F8C786",
"T 	c #F8C681",
"U 	c #F7C681",
"V 	c #F8C682",
"W 	c #F7C682",
"X 	c #F8C47E",
"Y 	c #F8C57E",
"Z 	c #F8C57D",
"` 	c #F7C47D",
" .	c #F8C47D",
"..	c #F7C379",
"+.	c #F7C37A",
"@.	c #F7C27A",
"#.	c #F8C37A",
"$.	c #F7C279",
"%.	c #F8C279",
"&.	c #F0CE9F",
"          . + + ",
"      @ # @ @ @ ",
"    $ $ % & * = ",
"  - - ; ; ; > > ",
"  , ' ) ) ' ) ) ",
"! ~ ~ { ! { ! ] ",
"^ ^ / ( _ _ / ^ ",
": : : < [ [ } | ",
"1 2 3 1 2 2 4 2 ",
"5 5 5 6 5 7 5 7 ",
"8 9 0 8 0 0 0 8 ",
"a b c c d c e f ",
"g h i h h h j k ",
"l m m l m n m m ",
"o o o o p o p q ",
"r r s t t s t r ",
"u v w x y u y u ",
"z z z A B B z B ",
"C D E F D G G F ",
"H H I J K H K K ",
"L M N O O O L L ",
"P Q Q R S P P P ",
"T T U T V T W T ",
"X Y Z ` X  .Z ` ",
"..+.@.#.$.+.#.%.",
"&.&.&.&.&.&.&.&."};
